<?xml version="1.0" encoding="UTF-8"?>
<svg xmlns="http://www.w3.org/2000/svg" xmlns:xlink="http://www.w3.org/1999/xlink" width="150px" height="150px" viewBox="0 0 128 128" version="1.1">
<g id="surface1">
<path style=" stroke:none;fill-rule:nonzero;fill:rgb(60.392157%,58.823529%,58.823529%);fill-opacity:1;" d="M 71.246094 67.644531 L 71.082031 94.984375 L 66.3125 99.769531 L 68.082031 101.535156 L 73.578125 96.023438 L 73.75 67.660156 Z M 71.246094 67.644531 "/>
<path style=" stroke:none;fill-rule:nonzero;fill:rgb(60.392157%,58.823529%,58.823529%);fill-opacity:1;" d="M 82.292969 105.480469 L 71.523438 96.460938 L 73.128906 94.542969 L 83.898438 103.5625 Z M 82.292969 105.480469 "/>
<path style=" stroke:none;fill-rule:nonzero;fill:rgb(60.392157%,58.823529%,58.823529%);fill-opacity:1;" d="M 75.3125 107.226562 L 70.898438 96.441406 L 73.214844 95.492188 L 77.628906 106.277344 Z M 75.3125 107.226562 "/>
<path style=" stroke:none;fill-rule:nonzero;fill:rgb(60.392157%,58.823529%,58.823529%);fill-opacity:1;" d="M 76.4375 72 L 88.214844 96.671875 L 86.007812 103.066406 L 88.371094 103.882812 L 90.914062 96.519531 L 78.695312 70.921875 Z M 76.4375 72 "/>
<path style=" stroke:none;fill-rule:nonzero;fill:rgb(60.392157%,58.823529%,58.823529%);fill-opacity:1;" d="M 89.261719 97.808594 L 102.878906 101.234375 L 103.488281 98.804688 L 89.871094 95.382812 Z M 89.261719 97.808594 "/>
<path style=" stroke:none;fill-rule:nonzero;fill:rgb(60.392157%,58.823529%,58.823529%);fill-opacity:1;" d="M 97.359375 105.84375 L 88.679688 98.0625 L 90.351562 96.199219 L 99.027344 103.980469 Z M 97.359375 105.84375 "/>
<path style=" stroke:none;fill-rule:nonzero;fill:rgb(56.862745%,78.823529%,77.254902%);fill-opacity:1;" d="M 116.140625 24.621094 L 115.707031 24.535156 L 103.699219 37.164062 L 93.371094 74.089844 L 83.046875 80.046875 L 80.878906 81.296875 L 73.640625 85.449219 L 71.140625 86.902344 L 70.871094 87.050781 L 51.472656 78.09375 L 17.078125 110.6875 L 14.910156 112.738281 L 6.003906 100.296875 L 6.40625 99.996094 L 34.027344 79.363281 L 4.402344 97.410156 L 0 92.503906 L 32.925781 73.441406 L 4.570312 87 L 2.019531 80.3125 L 52.308594 60.480469 L 81.414062 29.808594 L 84.199219 13.042969 L 81.414062 4.753906 L 74.476562 2.550781 L 84.28125 0 L 93.191406 6.171875 L 110.621094 8.039062 L 113.753906 14.292969 L 114.941406 14.496094 L 115.707031 20.898438 Z M 116.140625 24.621094 "/>
<path style=" stroke:none;fill-rule:nonzero;fill:rgb(100%,100%,100%);fill-opacity:1;" d="M 105.25 20.144531 C 104.902344 22.234375 102.929688 23.644531 100.839844 23.296875 C 98.75 22.953125 97.339844 20.976562 97.683594 18.886719 C 98.03125 16.796875 100.007812 15.382812 102.09375 15.734375 C 104.1875 16.078125 105.597656 18.054688 105.25 20.144531 Z M 105.25 20.144531 "/>
<path style=" stroke:none;fill-rule:nonzero;fill:rgb(59.607843%,59.607843%,59.607843%);fill-opacity:1;" d="M 103.410156 19.714844 C 103.246094 20.710938 102.300781 21.382812 101.308594 21.214844 C 100.308594 21.050781 99.640625 20.109375 99.804688 19.113281 C 99.972656 18.121094 100.910156 17.445312 101.910156 17.613281 C 102.902344 17.78125 103.574219 18.71875 103.410156 19.714844 Z M 103.410156 19.714844 "/>
<path style=" stroke:none;fill-rule:nonzero;fill:rgb(46.666667%,68.627451%,66.27451%);fill-opacity:1;" d="M 92.195312 45.617188 L 74.996094 71.878906 L 59.867188 73.8125 L 52.175781 66.609375 L 60.507812 69.964844 L 70.90625 57.871094 L 64.109375 69.082031 L 74.113281 68.277344 Z M 92.195312 45.617188 "/>
<path style=" stroke:none;fill-rule:nonzero;fill:rgb(46.666667%,68.627451%,66.27451%);fill-opacity:1;" d="M 87.867188 39.714844 L 82.769531 48.121094 L 84.386719 42.835938 Z M 87.867188 39.714844 "/>
<path style=" stroke:none;fill-rule:nonzero;fill:rgb(46.666667%,68.627451%,66.27451%);fill-opacity:1;" d="M 58.972656 59.289062 L 52.722656 66.878906 L 57.179688 63.605469 Z M 58.972656 59.289062 "/>
<path style=" stroke:none;fill-rule:nonzero;fill:rgb(92.941176%,81.568627%,38.823529%);fill-opacity:1;" d="M 128 29.191406 L 127.183594 28.722656 L 121.5625 21.867188 L 115.707031 20.898438 L 114.941406 14.496094 L 122.710938 15.777344 L 124.929688 16.144531 L 125.496094 18.566406 Z M 128 29.191406 "/>
<path style=" stroke:none;fill-rule:nonzero;fill:rgb(84.705882%,71.764706%,30.980392%);fill-opacity:1;" d="M 121.558594 21.867188 L 115.703125 20.898438 L 116.144531 24.613281 L 121.808594 25.554688 L 127.179688 28.71875 Z M 121.558594 21.867188 "/>
</g>
</svg>
