<!-- Uploaded to: SVG Repo, www.svgrepo.com, Generator: SVG Repo Mixer Tools --><svg version="1.1" id="Layer_1" xmlns="http://www.w3.org/2000/svg" xmlns:xlink="http://www.w3.org/1999/xlink" viewBox="0 0 390.269 390.269" xml:space="preserve" height="78" width="78"><path style="fill:#FFFFFF;" d="M65.679,308.104H50.487c10.861,22.238,25.471,43.895,45.511,60.703h196.719  c52.04-40.663,69.366-130.069,73.697-157.156l-160.97-68.267v124.638c0,5.947-4.848,10.861-10.861,10.861  c-5.947,0-10.861-4.848-10.861-10.861V143.32L22.301,211.652c1.099,7.564,2.715,19.523,6.529,34.133h57.471  c5.947,0,10.861,4.848,10.861,10.861c0,5.947-4.848,10.861-10.861,10.861H34.778c2.198,6.529,4.331,12.477,6.529,19.523h24.372  c5.947,0,10.861,4.848,10.861,10.861S71.627,308.104,65.679,308.104z" /><path style="fill:#56ACE0;" d="M105.437,347.086c-34.715-32.517-51.459-87.273-58.505-121.923l148.493-62.836L343.4,224.646  c-7.564,36.331-24.954,92.703-57.471,122.505H105.437V347.086z" /><path style="fill:#194F82;" d="M264.532,314.569c0,5.947,4.848,10.861,10.861,10.861c5.947,0,10.861-4.848,10.861-10.861  c16.291-4.331,28.186-17.325,28.186-32.517c0-5.947-4.848-10.861-10.861-10.861c-5.947,0-10.861,4.848-10.861,10.861  c0,3.814-2.715,7.046-6.529,9.762v-61.22c0-5.947-4.848-10.861-10.861-10.861c-5.947,0-10.861,4.848-10.861,10.861v61.22  c-3.814-2.198-6.529-5.947-6.529-9.762c0-5.947-4.848-10.861-10.861-10.861c-5.947,0-10.861,4.848-10.861,10.861  C236.41,297.244,248.305,310.238,264.532,314.569z" /><g>	<path style="fill:#FFC10D;" d="M199.497,116.751l111.709,47.709V89.147H78.156v75.313l112.679-47.709   C193.55,115.716,196.782,115.716,199.497,116.751z" />	<rect x="145.841" y="21.914" style="fill:#FFC10D;" width="97.552" height="45.511" /></g><path style="fill:#194F82;" d="M383.223,194.844l-50.424-21.139V78.286c0-5.947-4.848-10.861-10.861-10.861h-56.889V11.118  c0-5.947-4.848-10.861-10.861-10.861H135.045c-5.947,0-10.861,4.848-10.861,10.861V67.49H67.295  c-5.947,0-10.861,4.848-10.861,10.861v94.836L6.592,194.326c-4.331,1.616-7.046,5.947-6.529,10.861  c0.517,4.848,10.861,124.121,86.174,182.626c2.198,1.616,4.331,2.198,6.529,2.198h204.347c2.198,0,4.331-0.517,6.529-2.198  c71.499-52.105,85.592-177.261,86.626-182.691C390.269,201.308,387.618,196.46,383.223,194.844z M65.679,286.383H41.243  c-2.715-6.529-4.848-12.994-6.529-19.523h51.459c5.947,0,10.861-4.848,10.861-10.861c0-5.947-4.848-10.861-10.861-10.861H28.831  c-3.814-14.61-5.43-26.57-6.529-34.133l161.487-68.267v124.638c0,5.947,4.848,10.861,10.861,10.861  c5.947,0,10.861-4.849,10.861-10.861V142.803l161.487,68.267c-4.331,27.087-21.657,116.493-73.697,157.156H95.998  c-20.04-16.291-34.715-37.947-45.511-60.703h14.61c5.947,0,10.861-4.848,10.861-10.861  C75.958,290.779,71.627,286.383,65.679,286.383z M78.156,89.147h233.05v75.313l-112.162-47.709c-2.715-1.099-5.947-1.099-8.663,0  L78.22,164.46V89.147H78.156z M145.841,21.914h97.551v45.511h-97.551V21.914z" /></svg>