<?xml version="1.0" encoding="iso-8859-1"?>
<!-- Uploaded to: SVG Repo, www.svgrepo.com, Generator: SVG Repo Mixer Tools -->
<svg height="800px" width="800px" version="1.1" id="Layer_1" xmlns="http://www.w3.org/2000/svg" xmlns:xlink="http://www.w3.org/1999/xlink" 
	 viewBox="0 0 508 508" xml:space="preserve">
<path style="fill:#BF360C;" d="M254,500c135.6,0,246-110.4,246-246S389.6,8,254,8S8,118.4,8,254S118.4,500,254,500z M106,226.8
	c0-10,5.6-18.8,15.6-18.8h86.8v-82.8c0-10,4.8-19.6,14.8-19.6H280c10.4,0,18.8,9.6,18.8,19.6V208h82.8c10.4,0,19.6,8.8,19.6,18.8
	V284c0,10-9.2,14.4-19.6,14.4h-82.8v86.8c0,10-8.8,15.6-18.8,15.6h-56.8c-10,0-14.8-5.2-14.8-15.6v-86.8h-86.8
	c-10,0-15.6-4.4-15.6-14.4V226.8z"/>
<path style="fill:#EEEEEE;" d="M122,290h88.8c2,0,7.2,5.6,7.2,7.6V386c0,6,1.2,8,7.2,8h57.6c6,0,11.2-2,11.2-8v-88.4
	c0-2,2-7.6,4-7.6h88c6,0,12-1.2,12-6.8v-58.4c0-5.6-6-11.2-12-11.2h-88c-2,0-4-1.6-4-3.6v-88c0-5.6-5.2-12-11.2-12h-57.6
	c-6,0-7.2,5.6-7.2,12v88.4c0,2-5.2,3.6-7.2,3.6H122c-6,0-8,4.8-8,11.2v58.4C114,289.2,116,290,122,290z"/>
<path d="M254,508C114,508,0,394,0,254S114,0,254,0s254,114,254,254S394,508,254,508z M254,8C118.4,8,8,118.4,8,254
	s110.4,246,246,246s246-110.4,246-246S389.6,8,254,8z"/>
<path d="M282.8,404h-57.6c-10,0-17.2-7.2-17.2-18v-86h-86c-10.8,0-18-6.8-18-16.8v-58.4c0-10,7.2-17.2,18-17.2h86V122
	c0-10.4,7.2-18,17.2-18h57.6c10,0,17.2,7.2,17.2,18v86h86c10.4,0,18,6.8,18,17.2v58.4c0,10-7.2,16.8-18,16.8h-86V386
	C300,396.8,292.8,404,282.8,404z M122,216c-6,0-10,3.2-10,9.2v58.4c0,8,6.8,8.8,10,8.8h90c2.4,0,4,1.6,4,4V386c0,6,3.2,10,9.2,10
	h57.6c5.6,0,9.2-3.6,9.2-10v-90c0-2.4,1.6-4,4-4h90c2.8,0,10-0.8,10-8.8v-58.4c0-5.6-3.6-9.2-10-9.2h-90c-2.4,0-4-1.6-4-4V122
	c0-6-3.6-10-9.2-10h-57.6c-5.6,0-9.2,3.6-9.2,10v90c0,2.4-1.6,4-4,4H122z"/>
</svg>