<?xml version="1.0" encoding="UTF-8"?>
<svg xmlns="http://www.w3.org/2000/svg" xmlns:xlink="http://www.w3.org/1999/xlink" width="150px" height="150px" viewBox="0 0 129 129" version="1.1">
<g id="surface1">
<path style=" stroke:none;fill-rule:nonzero;fill:rgb(0%,0%,0%);fill-opacity:1;" d="M 129 64.5 L 126.566406 63.871094 C 124.332031 63.296875 123.226562 61.863281 122.476562 58.550781 L 122.425781 58.277344 C 121.371094 54.085938 118.460938 51.273438 113.992188 50.144531 C 110.679688 49.316406 108.117188 46.730469 107.289062 43.394531 L 107.015625 42.3125 C 106.085938 38.625 103.25 35.789062 99.5625 34.886719 C 98.707031 34.683594 97.90625 34.308594 97.175781 33.804688 L 117.105469 13.878906 L 115.070312 11.847656 L 64.5 62.46875 L 13.902344 11.894531 L 11.871094 13.929688 L 31.222656 33.277344 L 0 64.5 L 2.433594 65.128906 C 4.667969 65.703125 5.773438 67.136719 6.523438 70.449219 L 6.574219 70.722656 C 7.628906 74.914062 10.539062 77.726562 15.007812 78.855469 C 18.320312 79.683594 20.882812 82.269531 21.710938 85.605469 L 21.984375 86.6875 C 22.914062 90.375 25.75 93.210938 29.4375 94.113281 C 30.292969 94.316406 31.09375 94.691406 31.824219 95.195312 L 11.894531 115.121094 L 13.929688 117.152344 L 64.5 66.53125 L 115.097656 117.128906 L 117.128906 115.097656 L 97.777344 95.746094 Z M 33.855469 93.109375 C 32.75 92.257812 31.472656 91.628906 30.089844 91.304688 C 27.457031 90.675781 25.421875 88.617188 24.746094 85.984375 L 24.46875 84.902344 C 23.390625 80.5625 20.027344 77.175781 15.6875 76.070312 C 12.246094 75.214844 10.140625 73.183594 9.335938 70.046875 L 9.285156 69.820312 C 8.734375 67.335938 7.78125 64.726562 5.296875 63.21875 L 33.230469 35.285156 L 39.601562 41.660156 L 15.785156 65.480469 L 14.253906 63.949219 L 12.976562 65.226562 L 17.316406 69.542969 L 18.597656 68.265625 L 17.066406 66.734375 L 40.882812 42.917969 L 47.234375 49.265625 L 23.414062 73.082031 L 21.886719 71.550781 L 20.605469 72.832031 L 24.921875 77.148438 L 26.203125 75.867188 L 24.671875 74.339844 L 48.488281 50.519531 L 54.835938 56.871094 L 31.019531 80.6875 L 29.488281 79.15625 L 28.210938 80.4375 L 32.527344 84.753906 L 33.804688 83.472656 L 32.273438 81.941406 L 56.09375 58.125 L 62.46875 64.5 Z M 89.371094 87.363281 L 113.1875 63.546875 L 114.71875 65.078125 L 116 63.796875 L 111.683594 59.457031 L 110.402344 60.734375 L 111.933594 62.265625 L 88.117188 86.082031 L 81.765625 79.734375 L 105.585938 55.917969 L 107.113281 57.449219 L 108.394531 56.167969 L 104.078125 51.851562 L 102.796875 53.132812 L 104.328125 54.660156 L 80.511719 78.480469 L 74.164062 72.128906 L 97.980469 48.3125 L 99.511719 49.84375 L 100.789062 48.5625 L 96.472656 44.246094 L 95.195312 45.527344 L 96.726562 47.058594 L 72.90625 70.875 L 66.53125 64.5 L 95.144531 35.890625 C 96.25 36.742188 97.527344 37.371094 98.910156 37.695312 C 101.542969 38.324219 103.578125 40.382812 104.253906 43.015625 L 104.53125 44.097656 C 105.609375 48.4375 108.972656 51.824219 113.3125 52.929688 C 116.726562 53.785156 118.859375 55.816406 119.664062 58.953125 L 119.714844 59.179688 C 120.265625 61.664062 121.21875 64.273438 123.703125 65.78125 L 95.746094 93.714844 Z M 73.285156 26.652344 C 72.707031 27.230469 72.855469 27.632812 73.03125 27.90625 L 73.082031 28.007812 C 74.363281 30.117188 71.453125 33.429688 68.0625 35.460938 C 67.886719 35.5625 67.6875 35.6875 67.511719 35.789062 L 67.511719 27.40625 C 69.015625 26.902344 70.449219 26.730469 71.527344 26.980469 C 71.628906 26.527344 71.878906 26.074219 72.28125 25.675781 C 72.683594 25.273438 73.132812 25.023438 73.585938 24.921875 C 73.132812 23.015625 74.0625 20.050781 75.566406 17.566406 C 76.371094 16.210938 77.375 14.957031 78.429688 14.003906 L 78.429688 25.726562 C 77.074219 26.730469 75.71875 27.15625 74.640625 26.503906 L 74.539062 26.453125 C 74.289062 26.25 73.859375 26.101562 73.285156 26.652344 Z M 46.804688 18.296875 C 46.054688 13.652344 47.558594 9.839844 52.027344 5.394531 C 56.492188 0.929688 60.285156 -0.550781 64.925781 0.175781 C 73.410156 1.53125 80.664062 9.085938 83.523438 12.949219 C 84.929688 14.582031 83.925781 18.371094 82.09375 21.433594 C 81.542969 22.335938 80.914062 23.214844 80.210938 23.992188 L 80.210938 12.675781 C 75.667969 11.542969 69.644531 13.601562 64.925781 18.296875 C 60.207031 23.015625 58.175781 29.039062 59.304688 33.582031 C 60.15625 31.921875 62.066406 30.191406 64.171875 28.9375 C 64.675781 28.636719 65.203125 28.359375 65.730469 28.109375 L 65.730469 36.640625 C 63.269531 37.644531 60.835938 37.945312 59.582031 36.917969 C 55.714844 34.03125 48.160156 26.777344 46.804688 18.296875 Z M 82.195312 110.703125 C 82.945312 115.347656 81.441406 119.160156 76.972656 123.605469 C 72.507812 128.070312 68.714844 129.550781 64.074219 128.824219 C 55.589844 127.46875 48.335938 119.914062 45.476562 116.050781 C 44.070312 114.417969 45.074219 110.628906 46.90625 107.566406 C 47.457031 106.664062 48.085938 105.785156 48.789062 105.007812 L 48.789062 116.324219 C 53.332031 117.457031 59.355469 115.398438 64.074219 110.703125 C 68.792969 105.984375 70.824219 99.960938 69.695312 95.417969 C 68.84375 97.078125 66.933594 98.808594 64.828125 100.0625 C 64.324219 100.363281 63.796875 100.640625 63.269531 100.890625 L 63.269531 92.359375 C 65.730469 91.355469 68.164062 91.054688 69.417969 92.082031 C 73.285156 94.96875 80.839844 102.222656 82.195312 110.703125 Z M 55.714844 102.347656 C 56.292969 101.769531 56.144531 101.367188 55.96875 101.09375 L 55.917969 100.992188 C 54.636719 98.882812 57.546875 95.570312 60.9375 93.539062 C 61.113281 93.4375 61.3125 93.3125 61.488281 93.210938 L 61.488281 101.59375 C 59.984375 102.097656 58.550781 102.269531 57.472656 102.019531 C 57.371094 102.472656 57.121094 102.925781 56.71875 103.324219 C 56.316406 103.726562 55.867188 103.976562 55.414062 104.078125 C 55.867188 105.984375 54.9375 108.949219 53.433594 111.433594 C 52.628906 112.789062 51.625 114.042969 50.570312 114.996094 L 50.570312 103.273438 C 51.925781 102.269531 53.28125 101.84375 54.359375 102.496094 L 54.460938 102.546875 C 54.738281 102.75 55.164062 102.898438 55.714844 102.347656 Z M 55.714844 102.347656 "/>
</g>
</svg>
