<?xml version="1.0" encoding="utf-8"?>
<!-- Uploaded to: SVG Repo, www.svgrepo.com, Generator: SVG Repo Mixer Tools -->
<svg width="800px" height="800px" viewBox="0 0 1024 1024" class="icon"  version="1.1" xmlns="http://www.w3.org/2000/svg"><path d="M170.666667 885.333333a341.333333 53.333333 0 1 0 682.666666 0 341.333333 53.333333 0 1 0-682.666666 0Z" fill="#E2A305" /><path d="M256 469.333333c0 47.146667-38.186667 85.333333-85.333333 85.333334s-85.333333-38.186667-85.333334-85.333334 38.186667-85.333333 85.333334-85.333333 85.333333 38.186667 85.333333 85.333333M597.717333 469.333333c0 47.146667-38.186667 85.333333-85.333333 85.333334s-85.333333-38.186667-85.333333-85.333334 38.186667-85.333333 85.333333-85.333333 85.333333 38.186667 85.333333 85.333333M938.666667 469.333333c0 47.146667-38.186667 85.333333-85.333334 85.333334s-85.333333-38.186667-85.333333-85.333334 38.186667-85.333333 85.333333-85.333333 85.333333 38.186667 85.333334 85.333333" fill="#2E7D32" /><path d="M768 469.333333c0 47.146667-38.186667 85.333333-85.333333 85.333334s-85.333333-38.186667-85.333334-85.333334 38.186667-85.333333 85.333334-85.333333 85.333333 38.186667 85.333333 85.333333M427.050667 469.333333c0-47.146667-38.186667-85.333333-85.333334-85.333333s-85.333333 38.186667-85.333333 85.333333 38.186667 85.333333 85.333333 85.333334 85.333333-38.186667 85.333334-85.333334" fill="#FFA000" /><path d="M512 127.893333S510.464 128 507.776 128C106.666667 128 85.333333 469.333333 85.333333 469.333333h853.333334S917.333333 127.893333 512 127.893333z" fill="#4CAF50" /><path d="M512.384 127.893333s-85.333333 85.44-85.333333 341.44h-170.666667s-21.333333-256.106667 256-341.44z" fill="#FDD835" /><path d="M512 127.893333S597.333333 213.333333 597.333333 469.333333h170.666667S789.333333 213.226667 512 127.893333z" fill="#FDD835" /><path d="M533.333333 128c0 11.797333-42.666667 11.797333-42.666666 0V106.666667a21.333333 21.333333 0 1 1 42.666666 0v21.333333zM512 554.666667c-7.424 0-14.485333-1.258667-21.333333-3.029334V853.333333s0 21.333333 21.333333 21.333334 21.333333-21.333333 21.333333-21.333334V551.637333A84.714667 84.714667 0 0 1 512 554.666667z" fill="#455A64" /></svg>