<?xml version="1.0" encoding="UTF-8"?>
<svg xmlns="http://www.w3.org/2000/svg" xmlns:xlink="http://www.w3.org/1999/xlink" width="px" height="px" viewBox="0 0 257 246" version="1.1">
<g id="surface1">
<path style=" stroke:none;fill-rule:nonzero;fill:rgb(0%,0%,0%);fill-opacity:1;" d="M 117.398438 42.835938 C 117.398438 10.472656 128 0 128 0 C 128 0 138.601562 10.519531 138.601562 42.835938 C 138.601562 75.203125 130.398438 82.21875 128 82.21875 C 125.648438 82.21875 117.398438 75.203125 117.398438 42.835938 Z M 78 119.945312 C 78.75 117.6875 74.601562 107.667969 43.949219 97.699219 C 13.25 87.679688 0 94.542969 0 94.542969 C 0 94.542969 6.699219 107.871094 37.351562 117.890625 C 68.050781 127.859375 77.25 122.199219 78 119.945312 Z M 96.5 179.464844 C 94.601562 178.0625 83.851562 178.914062 64.851562 205.066406 C 45.851562 231.21875 48.25 246 48.25 246 C 48.25 246 62.949219 243.746094 81.898438 217.59375 C 100.898438 191.390625 98.351562 180.867188 96.5 179.464844 Z M 206.148438 146.347656 C 222.050781 168.292969 220.101562 197.800781 203.148438 217.441406 C 202.25 215.738281 201.25 213.933594 200.101562 212.132812 C 214.148438 194.445312 215.351562 168.84375 201.5 149.703125 C 195.050781 140.785156 186.25 134.625 176.601562 131.265625 C 183.851562 134.972656 190.25 140.484375 195.300781 147.449219 C 208.351562 165.4375 207.398438 186.78125 194.050781 203.011719 C 194.050781 203.011719 194.050781 203.011719 194.050781 202.960938 C 193.601562 202.359375 193.199219 201.808594 192.75 201.207031 C 205.050781 186.027344 206.199219 166.136719 193.550781 148.703125 C 184.800781 136.628906 172.25 129.765625 159.351562 128.5625 C 169.449219 130.617188 178.898438 136.476562 185.699219 145.796875 C 196.449219 160.625 196.050781 178.664062 185.75 192.441406 C 185.25 191.890625 184.800781 191.339844 184.300781 190.835938 C 193.949219 177.710938 194 160.925781 183.949219 147.097656 C 176.449219 136.726562 165.449219 130.867188 154.101562 130.0625 C 162.550781 131.667969 170.449219 136.476562 176.101562 144.191406 C 184.949219 156.417969 184.699219 171.648438 176.5 183.171875 C 175.949219 182.671875 175.398438 182.21875 174.851562 181.769531 C 182.449219 170.996094 182.648438 156.820312 174.398438 145.445312 C 168.050781 136.679688 158.601562 131.917969 148.898438 131.617188 C 155.75 132.769531 162.148438 136.476562 166.550781 142.539062 C 174.050781 152.910156 173.25 166.839844 165.398438 176.257812 C 164.550781 175.957031 163.800781 175.757812 163.050781 175.65625 C 170.898438 166.988281 171.898438 153.664062 164.800781 143.792969 C 157.398438 133.570312 143.75 130.566406 132.898438 136.175781 C 155.601562 155.316406 160 189.234375 142.300781 213.683594 C 126.398438 235.628906 97.800781 242.894531 73.898438 232.824219 C 75.25 231.421875 76.601562 229.917969 78 228.265625 C 99.101562 236.179688 123.75 229.417969 137.601562 210.277344 C 144.050781 201.359375 147.199219 191.089844 147.398438 180.867188 C 146.148438 188.933594 142.898438 196.75 137.851562 203.714844 C 124.800781 221.699219 104.300781 227.414062 84.75 219.695312 C 84.75 219.695312 84.75 219.695312 84.75 219.644531 C 85.199219 219.046875 85.601562 218.492188 86 217.894531 C 104.25 224.957031 123.449219 219.847656 136.050781 202.460938 C 144.800781 190.386719 147.449219 176.308594 144.601562 163.632812 C 145.800781 173.902344 143.148438 184.726562 136.398438 194.09375 C 125.648438 208.925781 108.398438 214.085938 92.148438 208.523438 C 92.550781 207.871094 92.898438 207.269531 93.25 206.671875 C 108.648438 211.832031 124.601562 206.671875 134.648438 192.84375 C 142.148438 182.472656 144.351562 170.195312 141.601562 159.125 C 142.699219 167.640625 140.601562 176.710938 134.949219 184.476562 C 126.101562 196.699219 111.550781 201.160156 98.101562 196.898438 C 98.398438 196.199219 98.648438 195.546875 98.898438 194.894531 C 111.449219 198.804688 124.949219 194.644531 133.199219 183.222656 C 139.550781 174.453125 141.148438 163.984375 138.449219 154.664062 C 139.5 161.527344 137.949219 168.792969 133.550781 174.855469 C 126.050781 185.226562 112.601562 188.734375 101.199219 184.175781 C 101.199219 183.324219 101.148438 182.519531 101.050781 181.769531 C 111.699219 186.578125 124.648438 183.421875 131.800781 173.601562 C 138.949219 163.734375 137.898438 150.355469 130 141.6875 C 118.75 169.042969 88.101562 183.574219 59.550781 174.253906 C 34 165.835938 18.25 140.835938 20.398438 114.933594 C 22.148438 115.785156 24 116.636719 26 117.4375 C 25 139.984375 39.050781 161.429688 61.449219 168.742188 C 71.898438 172.148438 82.601562 172 92.398438 168.992188 C 84.398438 170.246094 75.949219 169.59375 67.75 166.9375 C 46.648438 160.074219 34.898438 142.238281 36.199219 121.246094 C 36.199219 121.246094 36.199219 121.246094 36.25 121.246094 C 36.949219 121.496094 37.601562 121.699219 38.300781 121.898438 C 37.25 141.4375 48 158.222656 68.398438 164.886719 C 82.550781 169.496094 96.699219 167.640625 107.898438 161.027344 C 98.550781 165.335938 87.449219 166.1875 76.449219 162.582031 C 59.050781 156.917969 48.800781 142.089844 49.050781 124.855469 C 49.75 125.003906 50.449219 125.15625 51.148438 125.304688 C 51.050781 141.585938 60.800781 155.214844 77.101562 160.527344 C 89.25 164.484375 101.601562 162.730469 111.25 156.769531 C 103.5 160.476562 94.25 161.226562 85.148438 158.273438 C 70.800781 153.613281 62.101562 141.136719 62 126.957031 C 62.75 127.007812 63.449219 127.058594 64.148438 127.109375 C 64.300781 140.285156 72.449219 151.859375 85.800781 156.21875 C 96.050781 159.574219 106.5 157.820312 114.5 152.359375 C 108.300781 155.464844 100.949219 156.21875 93.851562 153.914062 C 81.699219 149.953125 74.199219 138.230469 75 125.957031 C 75.851562 125.707031 76.601562 125.40625 77.25 125.054688 C 76 136.679688 83 148.050781 94.5 151.859375 C 106.648438 155.816406 119.648438 150.003906 125 138.730469 C 94.800781 137.230469 70.75 112.128906 70.75 81.515625 C 70.75 54.410156 89.601562 31.664062 114.851562 25.753906 C 114.601562 27.65625 114.351562 29.710938 114.199219 31.863281 C 92.5 37.878906 76.5 57.867188 76.5 81.566406 C 76.5 92.539062 79.949219 102.757812 85.851562 111.125 C 82.148438 103.859375 80.199219 95.644531 80.199219 86.976562 C 80.199219 64.730469 93.449219 47.996094 113.800781 42.785156 C 113.800781 42.785156 113.800781 42.835938 113.800781 42.835938 C 113.800781 43.589844 113.800781 44.289062 113.800781 44.992188 C 94.898438 50 82.351562 65.433594 82.351562 86.976562 C 82.351562 101.90625 88.449219 114.832031 98.199219 123.449219 C 91.25 115.835938 87 105.515625 87 93.941406 C 87 75.605469 97.898438 61.273438 114.351562 56.164062 C 114.398438 56.914062 114.5 57.617188 114.550781 58.320312 C 99.050781 63.226562 89.148438 76.804688 89.148438 93.941406 C 89.148438 106.765625 94.601562 117.988281 103.300781 125.304688 C 97.398438 119.042969 93.800781 110.472656 93.800781 100.90625 C 93.800781 85.773438 102.949219 73.648438 116.351562 69.140625 C 116.5 69.84375 116.699219 70.59375 116.898438 71.246094 C 104.449219 75.453125 96 86.828125 96 100.90625 C 96 111.726562 100.851562 121.144531 108.5 127.109375 C 103.648438 122.148438 100.648438 115.382812 100.648438 107.871094 C 100.648438 95.042969 109.449219 84.269531 121.351562 81.265625 C 121.851562 81.964844 122.351562 82.617188 122.898438 83.117188 C 111.449219 85.523438 102.851562 95.695312 102.851562 107.871094 C 102.851562 120.496094 112.148438 130.964844 124.199219 132.820312 C 117.050781 103.960938 133.351562 73.949219 162 64.582031 C 187.699219 56.214844 215.101562 67.1875 228.550781 89.382812 C 226.648438 89.730469 224.648438 90.132812 222.550781 90.632812 C 210.101562 71.796875 186.199219 62.726562 163.800781 70.042969 C 153.351562 73.449219 144.75 79.914062 138.648438 88.078125 C 144.398438 82.316406 151.601562 77.910156 159.800781 75.253906 C 180.898438 68.390625 200.851562 75.855469 212.101562 93.640625 C 212.101562 93.640625 212.101562 93.640625 212.050781 93.640625 C 211.351562 93.890625 210.699219 94.089844 210 94.339844 C 199.398438 77.910156 180.851562 70.695312 160.449219 77.308594 C 146.300781 81.917969 135.898438 91.738281 130.75 103.710938 C 135.800781 94.742188 144.300781 87.476562 155.25 83.921875 C 172.648438 78.257812 189.648438 84.222656 199.5 98.300781 C 198.800781 98.601562 198.148438 98.902344 197.5 99.152344 C 188.050781 85.925781 172.148438 80.664062 155.898438 85.925781 C 143.75 89.882812 134.800781 98.550781 130.5 109.121094 C 134.601562 101.554688 141.648438 95.492188 150.699219 92.539062 C 165.050781 87.878906 179.398438 92.839844 187.800781 104.210938 C 187.148438 104.613281 186.550781 105.011719 186 105.363281 C 178.148438 94.792969 164.75 90.234375 151.398438 94.59375 C 141.148438 97.949219 133.699219 105.464844 130.398438 114.632812 C 133.601562 108.46875 139.101562 103.511719 146.199219 101.207031 C 158.351562 97.246094 171.300781 102.308594 177.851562 112.730469 C 177.351562 113.429688 176.898438 114.132812 176.550781 114.785156 C 170.75 104.613281 158.398438 99.550781 146.898438 103.308594 C 134.898438 107.21875 127.851562 119.292969 129.800781 131.417969 C 154.949219 115.636719 188.449219 121.898438 206.148438 146.347656 Z M 159.550781 179.464844 C 157.648438 180.867188 155.101562 191.390625 174.050781 217.542969 C 193 243.695312 207.699219 245.949219 207.699219 245.949219 C 207.699219 245.949219 210.101562 231.21875 191.148438 205.066406 C 172.199219 178.914062 161.398438 178.113281 159.550781 179.464844 Z M 213.101562 97.097656 C 182.398438 107.117188 178.300781 117.089844 179.050781 119.34375 C 179.800781 121.597656 189 127.257812 219.648438 117.238281 C 250.351562 107.21875 257 93.890625 257 93.890625 C 257 93.890625 243.75 87.128906 213.101562 97.097656 Z M 213.101562 97.097656 "/>
</g>
</svg>
