<?xml version="1.0" encoding="UTF-8"?>
<svg xmlns="http://www.w3.org/2000/svg" xmlns:xlink="http://www.w3.org/1999/xlink" width="157px" height="150px" viewBox="0 0 128 123" version="1.1">
<g id="surface1">
<path style=" stroke:none;fill-rule:nonzero;fill:rgb(0%,0%,0%);fill-opacity:1;" d="M 58.472656 21.417969 C 58.472656 5.234375 63.75 0 63.75 0 C 63.75 0 69.03125 5.261719 69.03125 21.417969 C 69.03125 37.601562 64.945312 41.109375 63.75 41.109375 C 62.582031 41.109375 58.472656 37.601562 58.472656 21.417969 Z M 38.847656 59.972656 C 39.222656 58.84375 37.15625 53.835938 21.890625 48.847656 C 6.597656 43.839844 0 47.269531 0 47.269531 C 0 47.269531 3.335938 53.933594 18.601562 58.945312 C 33.894531 63.929688 38.476562 61.097656 38.847656 59.972656 Z M 48.0625 89.730469 C 47.117188 89.03125 41.761719 89.457031 32.300781 102.535156 C 22.835938 115.609375 24.03125 123 24.03125 123 C 24.03125 123 31.351562 121.871094 40.789062 108.796875 C 50.253906 95.695312 48.984375 90.433594 48.0625 89.730469 Z M 102.675781 73.171875 C 110.59375 84.144531 109.621094 98.902344 101.179688 108.722656 C 100.730469 107.871094 100.234375 106.96875 99.660156 106.066406 C 106.660156 97.222656 107.257812 84.421875 100.359375 74.851562 C 97.144531 70.394531 92.761719 67.3125 87.957031 65.632812 C 91.566406 67.488281 94.753906 70.242188 97.269531 73.726562 C 103.769531 82.71875 103.296875 93.390625 96.648438 101.507812 C 96.648438 101.507812 96.648438 101.507812 96.648438 101.480469 C 96.421875 101.179688 96.222656 100.90625 96 100.605469 C 102.125 93.015625 102.699219 83.070312 96.398438 74.351562 C 92.039062 68.3125 85.789062 64.882812 79.363281 64.28125 C 84.394531 65.308594 89.101562 68.238281 92.488281 72.898438 C 97.84375 80.3125 97.644531 89.332031 92.511719 96.21875 C 92.265625 95.945312 92.039062 95.667969 91.792969 95.417969 C 96.597656 88.855469 96.621094 80.464844 91.617188 73.550781 C 87.882812 68.363281 82.402344 65.433594 76.75 65.03125 C 80.957031 65.832031 84.894531 68.238281 87.707031 72.097656 C 92.113281 78.207031 91.992188 85.824219 87.90625 91.585938 C 87.632812 91.335938 87.359375 91.109375 87.085938 90.882812 C 90.871094 85.5 90.96875 78.410156 86.859375 72.722656 C 83.699219 68.339844 78.992188 65.960938 74.160156 65.808594 C 77.570312 66.386719 80.757812 68.238281 82.949219 71.269531 C 86.6875 76.457031 86.289062 83.417969 82.378906 88.128906 C 81.953125 87.980469 81.582031 87.878906 81.207031 87.828125 C 85.117188 83.496094 85.617188 76.832031 82.078125 71.894531 C 78.394531 66.785156 71.59375 65.28125 66.191406 68.089844 C 77.496094 77.65625 79.6875 94.617188 70.875 106.84375 C 62.953125 117.816406 48.710938 121.445312 36.804688 116.410156 C 37.480469 115.710938 38.152344 114.957031 38.847656 114.132812 C 49.355469 118.089844 61.632812 114.707031 68.53125 105.140625 C 71.746094 100.679688 73.3125 95.542969 73.414062 90.433594 C 72.789062 94.46875 71.171875 98.375 68.65625 101.855469 C 62.15625 110.851562 51.945312 113.707031 42.210938 109.847656 C 42.210938 109.847656 42.210938 109.847656 42.210938 109.824219 C 42.433594 109.523438 42.632812 109.246094 42.832031 108.945312 C 51.921875 112.480469 61.484375 109.921875 67.761719 101.230469 C 72.117188 95.195312 73.4375 88.152344 72.019531 81.816406 C 72.617188 86.953125 71.296875 92.363281 67.933594 97.046875 C 62.582031 104.460938 53.988281 107.042969 45.894531 104.261719 C 46.09375 103.9375 46.269531 103.636719 46.445312 103.335938 C 54.113281 105.914062 62.058594 103.335938 67.0625 96.421875 C 70.796875 91.234375 71.894531 85.097656 70.523438 79.5625 C 71.074219 83.820312 70.027344 88.355469 67.210938 92.238281 C 62.804688 98.351562 55.558594 100.578125 48.859375 98.449219 C 49.007812 98.097656 49.132812 97.773438 49.257812 97.449219 C 55.507812 99.402344 62.230469 97.324219 66.339844 91.609375 C 69.503906 87.226562 70.300781 81.992188 68.957031 77.332031 C 69.480469 80.765625 68.707031 84.398438 66.515625 87.425781 C 62.78125 92.613281 56.082031 94.367188 50.402344 92.085938 C 50.402344 91.660156 50.378906 91.261719 50.328125 90.882812 C 55.632812 93.289062 62.082031 91.710938 65.644531 86.800781 C 69.203125 81.867188 68.683594 75.179688 64.746094 70.84375 C 59.144531 84.523438 43.878906 91.785156 29.660156 87.128906 C 16.933594 82.917969 9.089844 70.417969 10.160156 57.46875 C 11.03125 57.894531 11.953125 58.320312 12.949219 58.71875 C 12.453125 69.992188 19.449219 80.714844 30.605469 84.371094 C 35.808594 86.074219 41.140625 86 46.019531 84.496094 C 42.035156 85.121094 37.828125 84.796875 33.742188 83.46875 C 23.234375 80.039062 17.382812 71.121094 18.03125 60.625 C 18.03125 60.625 18.03125 60.625 18.054688 60.625 C 18.402344 60.75 18.726562 60.847656 19.074219 60.949219 C 18.550781 70.71875 23.90625 79.109375 34.066406 82.441406 C 41.113281 84.746094 48.160156 83.820312 53.738281 80.511719 C 49.082031 82.667969 43.554688 83.09375 38.078125 81.289062 C 29.410156 78.460938 24.304688 71.042969 24.429688 62.425781 C 24.777344 62.503906 25.125 62.578125 25.476562 62.652344 C 25.425781 70.792969 30.28125 77.609375 38.398438 80.261719 C 44.453125 82.242188 50.601562 81.367188 55.410156 78.382812 C 51.546875 80.238281 46.941406 80.613281 42.410156 79.136719 C 35.261719 76.804688 30.929688 70.570312 30.878906 63.480469 C 31.253906 63.503906 31.601562 63.527344 31.949219 63.554688 C 32.023438 70.140625 36.085938 75.929688 42.734375 78.109375 C 47.839844 79.789062 53.042969 78.910156 57.027344 76.179688 C 53.9375 77.734375 50.277344 78.109375 46.742188 76.957031 C 40.691406 74.976562 36.957031 69.117188 37.355469 62.976562 C 37.777344 62.851562 38.152344 62.703125 38.476562 62.527344 C 37.851562 68.339844 41.339844 74.027344 47.066406 75.929688 C 53.117188 77.910156 59.59375 75.003906 62.257812 69.367188 C 47.214844 68.613281 35.238281 56.0625 35.238281 40.757812 C 35.238281 27.207031 44.625 15.832031 57.203125 12.875 C 57.078125 13.828125 56.953125 14.855469 56.878906 15.933594 C 46.070312 18.9375 38.101562 28.933594 38.101562 40.78125 C 38.101562 46.269531 39.820312 51.378906 42.757812 55.5625 C 40.914062 51.929688 39.945312 47.820312 39.945312 43.488281 C 39.945312 32.367188 46.542969 24 56.679688 21.394531 C 56.679688 21.394531 56.679688 21.417969 56.679688 21.417969 C 56.679688 21.792969 56.679688 22.144531 56.679688 22.496094 C 47.265625 25 41.015625 32.714844 41.015625 43.488281 C 41.015625 50.953125 44.054688 57.417969 48.910156 61.726562 C 45.449219 57.917969 43.332031 52.757812 43.332031 46.96875 C 43.332031 37.800781 48.757812 30.636719 56.953125 28.082031 C 56.976562 28.457031 57.027344 28.808594 57.050781 29.160156 C 49.332031 31.613281 44.402344 38.402344 44.402344 46.96875 C 44.402344 53.382812 47.117188 58.996094 51.449219 62.652344 C 48.511719 59.519531 46.71875 55.238281 46.71875 50.453125 C 46.71875 42.886719 51.273438 36.824219 57.949219 34.570312 C 58.023438 34.921875 58.121094 35.296875 58.222656 35.621094 C 52.023438 37.726562 47.8125 43.414062 47.8125 50.453125 C 47.8125 55.863281 50.230469 60.574219 54.039062 63.554688 C 51.625 61.074219 50.128906 57.691406 50.128906 53.933594 C 50.128906 47.523438 54.511719 42.136719 60.4375 40.632812 C 60.6875 40.984375 60.9375 41.308594 61.210938 41.558594 C 55.507812 42.761719 51.226562 47.847656 51.226562 53.933594 C 51.226562 60.246094 55.855469 65.484375 61.859375 66.410156 C 58.296875 51.980469 66.414062 36.976562 80.683594 32.289062 C 93.484375 28.105469 107.132812 33.59375 113.832031 44.691406 C 112.882812 44.867188 111.886719 45.066406 110.84375 45.316406 C 104.640625 35.898438 92.738281 31.363281 81.582031 35.019531 C 76.375 36.726562 72.09375 39.957031 69.054688 44.039062 C 71.917969 41.160156 75.503906 38.953125 79.589844 37.625 C 90.097656 34.195312 100.035156 37.925781 105.636719 46.820312 C 105.636719 46.820312 105.636719 46.820312 105.613281 46.820312 C 105.265625 46.945312 104.941406 47.046875 104.589844 47.171875 C 99.3125 38.953125 90.074219 35.347656 79.914062 38.652344 C 72.867188 40.957031 67.6875 45.867188 65.121094 51.855469 C 67.636719 47.371094 71.871094 43.738281 77.324219 41.960938 C 85.988281 39.128906 94.457031 42.109375 99.363281 49.148438 C 99.011719 49.300781 98.691406 49.449219 98.367188 49.574219 C 93.660156 42.960938 85.738281 40.332031 77.648438 42.960938 C 71.59375 44.941406 67.136719 49.273438 64.996094 54.5625 C 67.039062 50.777344 70.550781 47.746094 75.058594 46.269531 C 82.203125 43.9375 89.351562 46.417969 93.535156 52.105469 C 93.210938 52.304688 92.910156 52.507812 92.636719 52.683594 C 88.726562 47.394531 82.054688 45.117188 75.40625 47.296875 C 70.300781 48.972656 66.589844 52.730469 64.945312 57.316406 C 66.539062 54.234375 69.28125 51.753906 72.816406 50.601562 C 78.867188 48.625 85.316406 51.152344 88.578125 56.363281 C 88.328125 56.714844 88.105469 57.066406 87.929688 57.390625 C 85.042969 52.304688 78.890625 49.777344 73.164062 51.65625 C 67.1875 53.609375 63.675781 59.644531 64.648438 65.707031 C 77.171875 57.816406 93.859375 60.949219 102.675781 73.171875 Z M 79.464844 89.730469 C 78.519531 90.433594 77.25 95.695312 86.6875 108.769531 C 96.125 121.847656 103.445312 122.976562 103.445312 122.976562 C 103.445312 122.976562 104.640625 115.609375 95.203125 102.535156 C 85.765625 89.457031 80.386719 89.054688 79.464844 89.730469 Z M 106.136719 48.546875 C 90.84375 53.558594 88.804688 58.542969 89.175781 59.671875 C 89.550781 60.796875 94.132812 63.628906 109.398438 58.621094 C 124.6875 53.609375 128 46.945312 128 46.945312 C 128 46.945312 121.402344 43.5625 106.136719 48.546875 Z M 106.136719 48.546875 "/>
</g>
</svg>
