<?xml version="1.0" encoding="utf-8"?>
<!-- Generator: Adobe Illustrator 27.8.1, SVG Export Plug-In . SVG Version: 6.00 Build 0)  -->
<svg version="1.1" id="Layer_1" xmlns="http://www.w3.org/2000/svg" xmlns:xlink="http://www.w3.org/1999/xlink" x="0px" y="0px"
	 viewBox="0 0 514 514" style="enable-background:new 0 0 514 514;" xml:space="preserve">
<style type="text/css">
	.st0{clip-path:url(#SVGID_00000030479293774292166150000006628136807777140106_);}
</style>
<g>
	<defs>
		<rect id="SVGID_1_" x="-103" y="-103" width="720" height="720"/>
	</defs>
	<clipPath id="SVGID_00000141438049833014662170000000941454529303306915_">
		<use xlink:href="#SVGID_1_"  style="overflow:visible;"/>
	</clipPath>
	<g style="clip-path:url(#SVGID_00000141438049833014662170000000941454529303306915_);">
		<path d="M33.8,283.7c-8.3,4.4-16.8,8.9-33.8,8.9v-7.1c15.2,0,22.6-3.9,30.5-8.1c8.3-4.4,16.8-8.9,33.8-8.9
			c9.7,0,16.6,1.5,22.3,3.5c-0.3,2.5-0.4,5-0.4,7.5c-5.5-2.3-12.1-3.9-21.9-3.9C49.1,275.7,41.7,279.6,33.8,283.7z M64.3,203.1
			c15.2,0,22.6,3.9,30.5,8.1c6.7,3.5,13.5,7.1,24.7,8.4c4.3-2.7,8.9-5,13.8-6.8c-1.5,0.1-3.1,0.1-4.8,0.1c-15.2,0-22.6-3.9-30.5-8.1
			c-8.3-4.4-16.8-8.9-33.8-8.9c-17,0-25.5,4.5-33.8,8.9c-7.9,4.1-15.3,8.1-30.5,8.1v7.1c16.9,0,25.5-4.5,33.8-8.9
			C41.7,207,49.1,203.1,64.3,203.1z M64.3,239.4c14.8,0,22.2,3.7,29.9,7.7c1.1-2.1,2.3-4.2,3.6-6.2c-8.2-4.3-16.7-8.7-33.5-8.7
			c-16.9,0-25.5,4.5-33.8,8.9c-7.9,4.1-15.3,8.1-30.5,8.1v7.1c16.9,0,25.5-4.5,33.8-8.9C41.7,243.3,49.1,239.4,64.3,239.4z
			 M64.3,312c15.2,0,22.6,3.9,30.5,8.1c1.9,1,3.9,2,5.9,3c-2.8-3.6-5.2-7.6-7.2-11.7c-7.1-3.5-15.3-6.5-29.2-6.5
			c-16.9,0-25.5,4.5-33.8,8.9c-7.9,4.1-15.3,8.1-30.5,8.1v7.1c16.9,0,25.5-4.5,33.8-8.9C41.7,315.9,49.1,312,64.3,312z M353.3,281.4
			l11-2.9l-29.5-110.6c-0.1-0.4,0.1-0.8,0.2-1c0.2-0.2,0.4-0.4,0.9-0.4l23.7,0c5.2,0,9.4,4.2,9.4,9.4c0,5.2-4.2,9.4-9.4,9.4v11.4
			c11.5,0,20.8-9.3,20.8-20.8c0-11.5-9.3-20.8-20.7-20.8l-23.8,0c-3.9,0-7.5,1.8-9.9,4.8c-2.4,3.1-3.2,7-2.3,10.9L353.3,281.4z
			 M150.9,208.8c2.2-0.2,4.4-0.3,6.7-0.3c3,0,6,0.2,8.9,0.6c6.6-3.3,13.8-6,26.4-6c0.8,0,1.5,0,2.2,0l-7-7
			c-13.8,0.8-21.5,4.8-29,8.7C156.4,206.2,153.8,207.6,150.9,208.8z M336.3,245.2l-6.1-22.8c-21.1,10.5-35.6,32.3-35.6,57.5
			c0,35.5,28.8,64.3,64.3,64.3c35.5,0,64.3-28.8,64.3-64.3c0-35.5-28.8-64.3-64.3-64.3c-1.3,0-2.6,0-3.8,0.1l6.1,22.8
			c21.8,1.2,39.2,19.3,39.2,41.4c0,22.8-18.6,41.4-41.4,41.4c-22.8,0-41.4-18.6-41.4-41.4C317.4,265.4,324.9,252.6,336.3,245.2z
			 M262.4,104.1c-1.5-0.9-3.3-1.4-5.4-1.4c-2.1,0-3.9,0.5-5.4,1.4c-2.2-3.3-6.2-6.4-11.1-8.8l-21.3,21.3c0.7,0.2,1.5,0.4,2.2,0.6
			c4.8,1.2,9.8,1.9,14.4,1.9c8.7,0,15.9-2.4,17.4-8.1c0.3-1.2,1.1-2.6,3.9-2.6c2.9,0,3.6,1.4,3.9,2.6c1,4.1,5.2,6.5,10.8,7.5
			l29.7-29.7c-4.9-0.1-10.3,0.5-15.4,1.8C276,93.2,266.3,98.3,262.4,104.1z M156.8,148.7L55.5,47.4l-8.1,8.1l101.4,101.4
			L156.8,148.7z M284.5,18.1c3-2.5,6.2-5.7,8.1-9.1C283.8,2.8,272.6,0,257,0c-22.7,0-36.2,5.9-46.1,19.6c-6.5,9-10.6,19.6-13,30.3
			c11.6-10.8,31.2-15,49.1-18.9C262.3,27.6,276.7,24.5,284.5,18.1z M64.3,166.8c15.2,0,22.6,3.9,30.5,8.1c8.3,4.4,16.8,8.9,33.8,8.9
			c16.9,0,25.5-4.5,33.8-8.9c1-0.5,1.9-1,2.9-1.5L160,168c-0.3,0.2-0.6,0.3-0.9,0.5c-7.9,4.1-15.3,8.1-30.5,8.1
			c-15.2,0-22.6-3.9-30.5-8.1c-8.3-4.4-16.8-8.9-33.8-8.9s-25.5,4.5-33.8,8.9c-7.9,4.1-15.3,8.1-30.5,8.1v7.1
			c16.9,0,25.5-4.5,33.8-8.9C41.7,170.7,49.1,166.8,64.3,166.8z M196.1,99.3c0.5,5.7,7.2,11,15.6,14.6l21.7-21.7
			c-1.8-0.6-3.5-1.1-5.3-1.6c-8.5-2.1-17.9-2.6-24.2-0.5c8.7-14.4,29.2-24.6,53.2-24.6c24,0,44.5,10.1,53.2,24.6L281.4,119
			c3.7-0.2,7.5-0.8,11.2-1.8c12.4-3.1,24.6-10.2,25.3-17.9c2.6-17.1,3.3-54.8-14.8-79.8c-1.5-2.1-3.1-4-4.8-5.8c0,0,0,0,0,0
			c-2.1,3.3-5.1,6.6-9.1,9.9c-9.1,7.6-24.4,10.9-40.5,14.4c-26,5.6-52.9,11.5-53.7,35.3C194.5,83.8,195.2,93,196.1,99.3z
			 M461.8,186.7c4.1,6.1,7.3,12.7,9.5,19.6l6.8-2.2c-2.4-7.6-5.9-14.8-10.3-21.4L461.8,186.7z M446.5,289.6
			c-5.7,4.6-11.9,8.4-18.6,11.3l2.8,6.6c7.3-3.1,14.1-7.3,20.3-12.3L446.5,289.6z M440.2,153.2l-5.1,5.1l16.2,16.1l5-5.1
			L440.2,153.2z M480.5,245.2c0.9-5.1,1.4-10.3,1.4-15.5c0-2.8-0.1-5.6-0.4-8.3l-7.1,0.7c0.2,2.5,0.4,5.1,0.4,7.6
			c0,4.8-0.4,9.5-1.3,14.2L480.5,245.2z M407,130.1l16.1,16.1l5.1-5.1L412.1,125L407,130.1z M463.4,282.6c5-6.2,9.1-13.1,12.1-20.4
			l-6.6-2.7c-2.8,6.7-6.5,13-11.1,18.7L463.4,282.6z M313.4,456.2h-11.9c-2,0-3.6-1.6-3.6-3.6c0-2,1.6-3.6,3.6-3.6h9.6l-2.4-7.5
			h-14.5c-2,0-3.6-1.6-3.6-3.6c0-2,1.6-3.6,3.6-3.6h12.3l-2.4-7.5h-17.2c-2,0-3.6-1.6-3.6-3.6c0-2,1.6-3.6,3.6-3.6h14.9l-2.4-7.5
			h-19.9c-2,0-3.6-1.6-3.6-3.6c0-2,1.6-3.6,3.6-3.6h17.7l-3.4-11.5c-41.8,5.8-29.2-18.3-41.6-27.5c-15.3,5.2-28.3,15.1-35.5,21.6
			l0.9,1.6c9.6,17,16.7,21.3,28.4,28.4c6.2,3.7,13.1,8,22,14.8c6.9,5.3,13.1,16.6,19.8,28.5c6.2,11.1,12.5,22.5,18.9,28.6
			c5.4,5.1,8.2,6.9,9.4,7.5c5.8-3.8,11.1-3.1,18.8,3c-1.9-7-7.4-15.9-11.8-23.3C318.7,468.7,316.1,464,313.4,456.2z M219.5,297
			c-7.5,27.2-32.4,47.1-61.9,47.1c-35.5,0-64.3-28.8-64.3-64.3c0-35.5,28.8-64.3,64.3-64.3c10.3,0,20,2.4,28.6,6.7l24.4-34.3
			l-9.5-31.3l-1.7,0.4c-2.1,0.7-4.3,1.1-6.5,1.1c-6.8,0-13.3-3.3-17.2-9.2l-2.4-3.6c-1-1.4-1.1-3.3-0.2-4.8c0.8-1.5,2.4-2.5,4.2-2.5
			h55c2.9,0,5.3,2.4,5.3,5.3c0,2.3-1.5,4.3-3.7,5.1l-21.7,5.5l7.5,24.8h98.8l6.3,23.5l-72.9,84c-1.9,2.2-4.7,3.4-7.6,3.4h-86.8
			c-5.5,0-10-4.5-10-10c0-2.1,0.6-4,1.7-5.6c0,0,0,0,0,0l23.4-32.9c-4.7-1.9-9.8-2.9-15.1-2.9c-22.8,0-41.4,18.6-41.4,41.4
			c0,22.8,18.6,41.4,41.4,41.4c16.7,0,31.2-10,37.7-24.3L219.5,297L219.5,297z M221.9,186l23.5,77.5l67.2-77.5H221.9z M179.2,244.6
			l-18,25.3h74.2l-22.2-73.2l-20.7,29.2c13.1,8.5,22.8,21.5,27.1,36.9h-24.2C191.8,255.2,186.2,248.9,179.2,244.6z M320,503
			c-1.5,1.1-2.8,1.7-5.2,1c-2.9-0.9-7.1-4-12.8-9.3c-7.2-6.8-13.9-18.7-20.3-30.3c-6.2-11.3-12.1-21.9-17.9-26.3
			c-8.5-6.6-15.3-10.7-21.3-14.3c-11.8-7.2-20.4-12.3-30.9-30.9c-0.1-0.2-0.1-0.1,0,0c-5.2,3.6-12.1,8.4,5.9,27
			c0,0,11.4,14.2,32.9,29.6c6.2,4.4,11.3,10.2,15.2,16.8c14.8,24.8,38.8,39.4,38.8,39.4c8.8,6.4,15.3,8.4,19.8,8.5
			c7.6,0.1,10.2-5.4,10.2-5.4c0,0,0,0,0,0C324.7,499.8,322.4,501.3,320,503z M358.8,351.3c-6.2,0-12.1-0.8-17.8-2.3l117.6,117.6
			l8.1-8.1L359.4,351.3C359.2,351.3,359,351.3,358.8,351.3z M47.4,458.6l8.1,8.1l116.9-116.9c-4.8,1-9.7,1.5-14.8,1.5
			c-1,0-1.9,0-2.8-0.1c0,0-0.1,0.1-0.2,0.1c-7,3.6-12.5,6.7-26,6.7c-15.2,0-22.6-3.9-30.5-8.1c-8.3-4.4-16.8-8.9-33.8-8.9
			s-25.5,4.5-33.8,8.9C22.6,354.1,15.2,358,0,358v7.1c16.9,0,25.5-4.5,33.8-8.9c7.9-4.1,15.3-8.1,30.5-8.1c15.2,0,22.6,3.9,30.5,8.1
			c8.3,4.4,16.8,8.9,33.8,8.9c5.1,0,9.5-0.4,13.3-1.1l-28.6,28.6c-6.1-1.5-10.6-3.9-15.2-6.3c-8.3-4.4-16.8-8.9-33.8-8.9
			c-17,0-25.5,4.5-33.8,8.9c-7.9,4.1-15.3,8.1-30.5,8.1v7.1c16.9,0,25.5-4.5,33.8-8.9c7.9-4.1,15.3-8.1,30.5-8.1
			c15.2,0,22.6,3.9,30.5,8.1c3.9,2.1,7.9,4.1,12.8,5.8L47.4,458.6z M475.8,143.4l-48.6-48.6l0.1-0.1l39.4-39.4l-8.1-8.1L358.1,147.9
			h1.6c4.2,0,8.2,1,11.8,2.7l5.4-5.4l50.9,50.9l0.1,0.1c9.5,8.6,14.9,20.8,14.9,33.6c0,13.1-5.6,25-14.6,33.3
			c0.6,2.6,1.1,5.3,1.5,8.1c12.3-9.6,20.3-24.6,20.3-41.3c0-14.7-6.3-28.9-17.2-38.8l-50.8-50.8l40.2-40.2l48.6,48.6l0.1,0.1
			c22.9,20.7,36,50.3,36,81.1c0,59.9-48.4,108.7-108.1,109.3c-4.2,2.9-8.8,5.3-13.6,7.2h12.4c64.2,0,116.5-52.3,116.5-116.5
			C514,196.9,500.1,165.5,475.8,143.4z"/>
	</g>
</g>
</svg>
