<?xml version="1.0" encoding="UTF-8"?>
<svg xmlns="http://www.w3.org/2000/svg" xmlns:xlink="http://www.w3.org/1999/xlink" width="150px" height="150px" viewBox="0 0 129 129" version="1.1">
<g id="surface1">
<path style=" stroke:none;fill-rule:nonzero;fill:rgb(0%,0%,0%);fill-opacity:1;" d="M 23.492188 68.816406 C 23.992188 68.816406 24.394531 68.414062 24.394531 67.914062 C 24.394531 67.410156 23.992188 67.007812 23.492188 67.007812 C 22.988281 67.007812 22.585938 67.410156 22.585938 67.914062 C 22.585938 68.414062 22.988281 68.816406 23.492188 68.816406 Z M 23.492188 68.816406 "/>
<path style=" stroke:none;fill-rule:nonzero;fill:rgb(0%,0%,0%);fill-opacity:1;" d="M 23.492188 57.019531 C 23.992188 57.019531 24.394531 56.621094 24.394531 56.117188 C 24.394531 55.617188 23.992188 55.214844 23.492188 55.214844 C 22.988281 55.214844 22.585938 55.617188 22.585938 56.117188 C 22.585938 56.621094 22.988281 57.019531 23.492188 57.019531 Z M 23.492188 57.019531 "/>
<path style=" stroke:none;fill-rule:nonzero;fill:rgb(0%,0%,0%);fill-opacity:1;" d="M 24.320312 75.292969 C 24.820312 75.292969 25.222656 74.890625 25.222656 74.386719 C 25.222656 73.886719 24.820312 73.484375 24.320312 73.484375 C 23.816406 73.484375 23.414062 73.886719 23.414062 74.386719 C 23.414062 74.890625 23.816406 75.292969 24.320312 75.292969 Z M 24.320312 75.292969 "/>
<path style=" stroke:none;fill-rule:nonzero;fill:rgb(0%,0%,0%);fill-opacity:1;" d="M 29.816406 68.011719 C 30.316406 68.011719 30.71875 67.613281 30.71875 67.109375 C 30.71875 66.609375 30.316406 66.207031 29.816406 66.207031 C 29.3125 66.207031 28.910156 66.609375 28.910156 67.109375 C 28.910156 67.613281 29.3125 68.011719 29.816406 68.011719 Z M 29.816406 68.011719 "/>
<path style=" stroke:none;fill-rule:nonzero;fill:rgb(0%,0%,0%);fill-opacity:1;" d="M 28.9375 62.46875 C 29.4375 62.46875 29.839844 62.066406 29.839844 61.5625 C 29.839844 61.0625 29.4375 60.660156 28.9375 60.660156 C 28.433594 60.660156 28.035156 61.0625 28.035156 61.5625 C 28.035156 62.066406 28.433594 62.46875 28.9375 62.46875 Z M 28.9375 62.46875 "/>
<path style=" stroke:none;fill-rule:nonzero;fill:rgb(0%,0%,0%);fill-opacity:1;" d="M 38.222656 53.65625 C 38.726562 53.65625 39.125 53.257812 39.125 52.753906 C 39.125 52.253906 38.726562 51.851562 38.222656 51.851562 C 37.722656 51.851562 37.320312 52.253906 37.320312 52.753906 C 37.320312 53.257812 37.722656 53.65625 38.222656 53.65625 Z M 38.222656 53.65625 "/>
<path style=" stroke:none;fill-rule:nonzero;fill:rgb(0%,0%,0%);fill-opacity:1;" d="M 33.929688 62.945312 C 34.433594 62.945312 34.835938 62.542969 34.835938 62.039062 C 34.835938 61.539062 34.433594 61.136719 33.929688 61.136719 C 33.429688 61.136719 33.027344 61.539062 33.027344 62.039062 C 33.027344 62.542969 33.429688 62.945312 33.929688 62.945312 Z M 33.929688 62.945312 "/>
<path style=" stroke:none;fill-rule:nonzero;fill:rgb(0%,0%,0%);fill-opacity:1;" d="M 29.261719 57.824219 C 29.765625 57.824219 30.167969 57.421875 30.167969 56.921875 C 30.167969 56.417969 29.765625 56.015625 29.261719 56.015625 C 28.761719 56.015625 28.359375 56.417969 28.359375 56.921875 C 28.386719 57.421875 28.785156 57.824219 29.261719 57.824219 Z M 29.261719 57.824219 "/>
<path style=" stroke:none;fill-rule:nonzero;fill:rgb(0%,0%,0%);fill-opacity:1;" d="M 26.226562 48.839844 C 26.730469 48.839844 27.128906 48.4375 27.128906 47.9375 C 27.128906 47.433594 26.730469 47.03125 26.226562 47.03125 C 25.726562 47.03125 25.324219 47.433594 25.324219 47.9375 C 25.324219 48.4375 25.726562 48.839844 26.226562 48.839844 Z M 26.226562 48.839844 "/>
<path style=" stroke:none;fill-rule:nonzero;fill:rgb(0%,0%,0%);fill-opacity:1;" d="M 31.421875 74.589844 C 31.921875 74.589844 32.324219 74.1875 32.324219 73.6875 C 32.324219 73.183594 31.921875 72.78125 31.421875 72.78125 C 30.917969 72.78125 30.519531 73.183594 30.519531 73.6875 C 30.519531 74.1875 30.917969 74.589844 31.421875 74.589844 Z M 31.421875 74.589844 "/>
<path style=" stroke:none;fill-rule:nonzero;fill:rgb(0%,0%,0%);fill-opacity:1;" d="M 32 50.519531 C 32.5 50.519531 32.902344 50.121094 32.902344 49.617188 C 32.902344 49.117188 32.5 48.714844 32 48.714844 C 31.496094 48.714844 31.09375 49.117188 31.09375 49.617188 C 31.09375 50.121094 31.496094 50.519531 32 50.519531 Z M 32 50.519531 "/>
<path style=" stroke:none;fill-rule:nonzero;fill:rgb(0%,0%,0%);fill-opacity:1;" d="M 20.78125 61.738281 C 21.28125 61.738281 21.683594 61.335938 21.683594 60.835938 C 21.683594 60.332031 21.28125 59.933594 20.78125 59.933594 C 20.277344 59.933594 19.878906 60.332031 19.878906 60.835938 C 19.878906 61.335938 20.277344 61.738281 20.78125 61.738281 Z M 20.78125 61.738281 "/>
<path style=" stroke:none;fill-rule:nonzero;fill:rgb(0%,0%,0%);fill-opacity:1;" d="M 36.265625 45.929688 C 36.765625 45.929688 37.167969 45.527344 37.167969 45.023438 C 37.167969 44.523438 36.765625 44.121094 36.265625 44.121094 C 35.761719 44.121094 35.363281 44.523438 35.363281 45.023438 C 35.386719 45.527344 35.789062 45.929688 36.265625 45.929688 Z M 36.265625 45.929688 "/>
<path style=" stroke:none;fill-rule:nonzero;fill:rgb(0%,0%,0%);fill-opacity:1;" d="M 57.296875 38.726562 C 67.988281 38.726562 76.648438 30.066406 76.648438 19.375 C 76.648438 8.683594 67.988281 0 57.296875 0 C 46.605469 0 37.945312 8.660156 37.945312 19.351562 C 37.945312 30.042969 46.605469 38.726562 57.296875 38.726562 Z M 57.296875 36.917969 C 55.539062 36.917969 53.832031 36.640625 52.226562 36.164062 C 54.964844 32.675781 57.773438 27.355469 58.148438 19.902344 C 60.710938 18.597656 63.167969 17.792969 65.480469 17.34375 C 65.503906 17.46875 67.863281 27.984375 60.9375 36.492188 C 59.757812 36.792969 58.550781 36.917969 57.296875 36.917969 Z M 74.863281 19.351562 C 74.863281 26.753906 70.273438 33.078125 63.773438 35.664062 C 69.117188 27.40625 67.488281 18.246094 67.261719 17.066406 C 70.097656 16.714844 72.632812 16.867188 74.714844 17.214844 C 74.816406 17.945312 74.863281 18.648438 74.863281 19.351562 Z M 74.386719 15.335938 C 70.019531 14.707031 64 14.957031 57.347656 18.320312 C 54.9375 16.765625 53.003906 15.007812 51.472656 13.25 C 51.574219 13.175781 59.480469 5.871094 70.324219 7.605469 C 72.28125 9.761719 73.710938 12.398438 74.386719 15.335938 Z M 57.296875 1.78125 C 61.414062 1.78125 65.175781 3.210938 68.164062 5.570312 C 58.351562 5.070312 51.222656 11.066406 50.34375 11.847656 C 48.613281 9.5625 47.484375 7.304688 46.757812 5.320312 C 49.691406 3.113281 53.332031 1.78125 57.296875 1.78125 Z M 45.277344 6.574219 C 46.933594 10.691406 50.144531 15.761719 56.367188 19.828125 C 56.21875 22.6875 55.691406 25.222656 54.914062 27.457031 C 54.789062 27.429688 44.523438 24.195312 40.605469 13.929688 C 41.511719 11.09375 43.140625 8.582031 45.277344 6.574219 Z M 39.90625 16.816406 C 44.371094 25.574219 53.132812 28.761719 54.261719 29.136719 C 53.15625 31.773438 51.726562 33.882812 50.394531 35.539062 C 44.121094 32.851562 39.730469 26.628906 39.730469 19.375 C 39.730469 18.496094 39.804688 17.644531 39.90625 16.816406 Z M 39.90625 16.816406 "/>
<path style=" stroke:none;fill-rule:nonzero;fill:rgb(0%,0%,0%);fill-opacity:1;" d="M 43.191406 56.09375 C 43.695312 56.09375 44.097656 55.691406 44.097656 55.1875 C 44.097656 54.6875 43.695312 54.285156 43.191406 54.285156 C 42.691406 54.285156 42.289062 54.6875 42.289062 55.1875 C 42.289062 55.691406 42.691406 56.09375 43.191406 56.09375 Z M 43.191406 56.09375 "/>
<path style=" stroke:none;fill-rule:nonzero;fill:rgb(0%,0%,0%);fill-opacity:1;" d="M 41.6875 61.589844 C 42.1875 61.589844 42.589844 61.1875 42.589844 60.683594 C 42.589844 60.183594 42.1875 59.78125 41.6875 59.78125 C 41.183594 59.78125 40.78125 60.183594 40.78125 60.683594 C 40.78125 61.1875 41.183594 61.589844 41.6875 61.589844 Z M 41.6875 61.589844 "/>
<path style=" stroke:none;fill-rule:nonzero;fill:rgb(0%,0%,0%);fill-opacity:1;" d="M 37.945312 68.0625 C 38.449219 68.0625 38.851562 67.664062 38.851562 67.160156 C 38.851562 66.660156 38.449219 66.257812 37.945312 66.257812 C 37.445312 66.257812 37.042969 66.660156 37.042969 67.160156 C 37.042969 67.664062 37.445312 68.0625 37.945312 68.0625 Z M 37.945312 68.0625 "/>
<path style=" stroke:none;fill-rule:nonzero;fill:rgb(0%,0%,0%);fill-opacity:1;" d="M 108.21875 69.066406 C 108.722656 69.066406 109.121094 68.667969 109.121094 68.164062 C 109.121094 67.664062 108.722656 67.261719 108.21875 67.261719 C 107.71875 67.261719 107.316406 67.664062 107.316406 68.164062 C 107.339844 68.667969 107.742188 69.066406 108.21875 69.066406 Z M 108.21875 69.066406 "/>
<path style=" stroke:none;fill-rule:nonzero;fill:rgb(0%,0%,0%);fill-opacity:1;" d="M 87.3125 69.21875 C 87.816406 69.21875 88.21875 68.816406 88.21875 68.316406 C 88.21875 67.8125 87.816406 67.410156 87.3125 67.410156 C 86.8125 67.410156 86.410156 67.8125 86.410156 68.316406 C 86.433594 68.816406 86.835938 69.21875 87.3125 69.21875 Z M 87.3125 69.21875 "/>
<path style=" stroke:none;fill-rule:nonzero;fill:rgb(0%,0%,0%);fill-opacity:1;" d="M 18.875 71.476562 C 19.375 71.476562 19.777344 71.074219 19.777344 70.574219 C 19.777344 70.070312 19.375 69.671875 18.875 69.671875 C 18.371094 69.671875 17.96875 70.070312 17.96875 70.574219 C 17.96875 71.074219 18.371094 71.476562 18.875 71.476562 Z M 18.875 71.476562 "/>
<path style=" stroke:none;fill-rule:nonzero;fill:rgb(0%,0%,0%);fill-opacity:1;" d="M 85.808594 74.691406 C 86.308594 74.691406 86.710938 74.289062 86.710938 73.785156 C 86.710938 73.285156 86.308594 72.882812 85.808594 72.882812 C 85.304688 72.882812 84.902344 73.285156 84.902344 73.785156 C 84.929688 74.289062 85.332031 74.691406 85.808594 74.691406 Z M 85.808594 74.691406 "/>
<path style=" stroke:none;fill-rule:nonzero;fill:rgb(0%,0%,0%);fill-opacity:1;" d="M 95.070312 67.863281 C 95.570312 67.863281 95.972656 67.460938 95.972656 66.960938 C 95.972656 66.457031 95.570312 66.054688 95.070312 66.054688 C 94.566406 66.054688 94.164062 66.457031 94.164062 66.960938 C 94.164062 67.460938 94.566406 67.863281 95.070312 67.863281 Z M 95.070312 67.863281 "/>
<path style=" stroke:none;fill-rule:nonzero;fill:rgb(0%,0%,0%);fill-opacity:1;" d="M 90.777344 77.125 C 91.277344 77.125 91.679688 76.722656 91.679688 76.21875 C 91.679688 75.71875 91.277344 75.316406 90.777344 75.316406 C 90.273438 75.316406 89.875 75.71875 89.875 76.21875 C 89.875 76.722656 90.273438 77.125 90.777344 77.125 Z M 90.777344 77.125 "/>
<path style=" stroke:none;fill-rule:nonzero;fill:rgb(0%,0%,0%);fill-opacity:1;" d="M 91.054688 62.71875 C 91.554688 62.71875 91.957031 62.316406 91.957031 61.816406 C 91.957031 61.3125 91.554688 60.910156 91.054688 60.910156 C 90.550781 60.910156 90.148438 61.3125 90.148438 61.816406 C 90.148438 62.316406 90.550781 62.71875 91.054688 62.71875 Z M 91.054688 62.71875 "/>
<path style=" stroke:none;fill-rule:nonzero;fill:rgb(0%,0%,0%);fill-opacity:1;" d="M 71.703125 90.273438 C 61.011719 90.273438 52.351562 98.933594 52.351562 109.625 C 52.351562 120.316406 61.011719 128.976562 71.703125 128.976562 C 82.394531 128.976562 91.054688 120.316406 91.054688 109.625 C 91.078125 98.957031 82.394531 90.273438 71.703125 90.273438 Z M 71.703125 92.082031 C 73.460938 92.082031 75.167969 92.359375 76.773438 92.835938 C 74.035156 96.324219 71.226562 101.644531 70.851562 109.097656 C 68.289062 110.402344 65.832031 111.207031 63.519531 111.65625 C 63.496094 111.53125 61.136719 101.015625 68.0625 92.507812 C 69.242188 92.207031 70.449219 92.082031 71.703125 92.082031 Z M 54.136719 109.648438 C 54.136719 102.246094 58.726562 95.921875 65.226562 93.335938 C 59.882812 101.59375 61.511719 110.753906 61.738281 111.933594 C 58.902344 112.285156 56.367188 112.132812 54.285156 111.785156 C 54.183594 111.054688 54.136719 110.351562 54.136719 109.648438 Z M 54.613281 113.664062 C 59.003906 114.292969 65 114.066406 71.652344 110.679688 C 74.0625 112.234375 75.996094 113.992188 77.527344 115.75 C 77.425781 115.824219 69.519531 123.128906 58.675781 121.394531 C 56.71875 119.238281 55.289062 116.601562 54.613281 113.664062 Z M 71.703125 127.21875 C 67.585938 127.21875 63.824219 125.789062 60.835938 123.429688 C 70.648438 123.929688 77.777344 117.933594 78.65625 117.152344 C 80.386719 119.4375 81.515625 121.695312 82.269531 123.679688 C 79.308594 125.886719 75.667969 127.21875 71.703125 127.21875 Z M 83.722656 122.425781 C 82.066406 118.308594 78.855469 113.238281 72.632812 109.171875 C 72.78125 106.3125 73.308594 103.777344 74.085938 101.542969 C 74.210938 101.570312 84.476562 104.804688 88.394531 115.070312 C 87.488281 117.90625 85.859375 120.417969 83.722656 122.425781 Z M 89.09375 112.183594 C 84.628906 103.425781 75.867188 100.238281 74.738281 99.863281 C 75.84375 97.226562 77.273438 95.117188 78.605469 93.460938 C 84.878906 96.148438 89.269531 102.371094 89.269531 109.625 C 89.269531 110.503906 89.195312 111.355469 89.09375 112.183594 Z M 89.09375 112.183594 "/>
<path style=" stroke:none;fill-rule:nonzero;fill:rgb(0%,0%,0%);fill-opacity:1;" d="M 115.347656 65.527344 C 115.847656 65.527344 116.25 65.128906 116.25 64.625 C 116.25 64.125 115.847656 63.722656 115.347656 63.722656 C 114.84375 63.722656 114.445312 64.125 114.445312 64.625 C 114.445312 65.128906 114.84375 65.527344 115.347656 65.527344 Z M 115.347656 65.527344 "/>
<path style=" stroke:none;fill-rule:nonzero;fill:rgb(0%,0%,0%);fill-opacity:1;" d="M 113.664062 71.050781 C 114.167969 71.050781 114.570312 70.648438 114.570312 70.148438 C 114.570312 69.644531 114.167969 69.242188 113.664062 69.242188 C 113.164062 69.242188 112.761719 69.644531 112.761719 70.148438 C 112.789062 70.648438 113.1875 71.050781 113.664062 71.050781 Z M 113.664062 71.050781 "/>
<path style=" stroke:none;fill-rule:nonzero;fill:rgb(0%,0%,0%);fill-opacity:1;" d="M 110.125 59.304688 C 110.628906 59.304688 111.03125 58.902344 111.03125 58.402344 C 111.03125 57.898438 110.628906 57.496094 110.125 57.496094 C 109.625 57.496094 109.222656 57.898438 109.222656 58.402344 C 109.222656 58.902344 109.625 59.304688 110.125 59.304688 Z M 110.125 59.304688 "/>
<path style=" stroke:none;fill-rule:nonzero;fill:rgb(0%,0%,0%);fill-opacity:1;" d="M 129 64.5 L 106.238281 41.738281 L 104.957031 43.015625 L 126.441406 64.5 L 96.5 94.464844 L 73.734375 71.703125 L 123.929688 21.507812 L 107.492188 5.070312 L 57.296875 55.265625 L 13.902344 11.894531 L 11.871094 13.929688 L 31.222656 33.277344 L 0 64.5 L 22.761719 87.261719 L 24.042969 85.984375 L 2.535156 64.5 L 32.5 34.535156 L 55.265625 57.296875 L 5.070312 107.492188 L 21.507812 123.929688 L 71.703125 73.734375 L 115.070312 117.105469 L 117.105469 115.070312 L 97.753906 95.722656 Z M 72.078125 70.824219 L 67.035156 65.78125 L 72.078125 60.734375 L 77.125 65.78125 Z M 22.761719 97.378906 L 27.808594 92.332031 L 32.878906 97.378906 L 27.832031 102.421875 Z M 26.554688 103.703125 L 21.507812 108.746094 L 16.464844 103.703125 L 21.507812 98.65625 Z M 29.085938 91.054688 L 34.132812 86.007812 L 39.175781 91.054688 L 34.15625 96.121094 Z M 35.414062 84.726562 L 40.457031 79.683594 L 45.5 84.726562 L 40.457031 89.773438 Z M 41.738281 78.402344 L 46.78125 73.359375 L 51.824219 78.402344 L 46.78125 83.449219 Z M 48.0625 72.078125 L 53.105469 67.035156 L 58.148438 72.078125 L 53.105469 77.125 Z M 54.386719 65.78125 L 59.429688 60.734375 L 64.476562 65.78125 L 59.429688 70.824219 Z M 60.710938 59.457031 L 65.753906 54.410156 L 70.800781 59.457031 L 65.78125 64.5 Z M 102.445312 27.832031 L 97.378906 32.878906 L 92.332031 27.832031 L 97.378906 22.761719 Z M 98.65625 21.507812 L 103.703125 16.464844 L 108.746094 21.507812 L 103.703125 26.554688 Z M 96.121094 34.15625 L 91.078125 39.203125 L 86.035156 34.15625 L 91.078125 29.113281 Z M 89.796875 40.480469 L 84.753906 45.527344 L 79.707031 40.480469 L 84.753906 35.4375 Z M 83.472656 46.804688 L 78.429688 51.851562 L 73.382812 46.804688 L 78.429688 41.761719 Z M 77.148438 53.132812 L 72.105469 58.175781 L 67.058594 53.132812 L 72.105469 48.085938 Z M 78.402344 64.5 L 73.359375 59.457031 L 78.402344 54.410156 L 83.449219 59.457031 Z M 84.726562 58.175781 L 79.683594 53.132812 L 84.726562 48.085938 L 89.773438 53.132812 Z M 91.054688 51.851562 L 86.007812 46.804688 L 91.054688 41.761719 L 96.097656 46.804688 Z M 97.378906 45.527344 L 92.332031 40.480469 L 97.378906 35.4375 L 102.421875 40.480469 Z M 103.703125 39.203125 L 98.65625 34.15625 L 103.703125 29.113281 L 108.746094 34.15625 Z M 110.027344 32.878906 L 104.980469 27.832031 L 110.027344 22.789062 L 115.070312 27.832031 Z M 121.394531 21.507812 L 116.351562 26.554688 L 111.304688 21.507812 L 116.351562 16.464844 Z M 115.097656 15.183594 L 110.050781 20.226562 L 105.007812 15.183594 L 110.050781 10.140625 Z M 7.605469 107.492188 L 107.492188 7.578125 L 108.773438 8.859375 L 8.859375 108.773438 Z M 10.113281 110.027344 L 15.160156 104.980469 L 20.203125 110.027344 L 15.160156 115.070312 Z M 21.507812 121.394531 L 16.464844 116.351562 L 21.507812 111.304688 L 26.554688 116.351562 Z M 27.832031 115.097656 L 22.789062 110.050781 L 27.832031 105.007812 L 32.878906 110.050781 Z M 34.15625 108.773438 L 29.113281 103.726562 L 34.15625 98.683594 L 39.203125 103.726562 Z M 40.480469 102.445312 L 35.414062 97.378906 L 40.457031 92.332031 L 45.5 97.378906 Z M 46.804688 96.121094 L 41.761719 91.078125 L 46.804688 86.035156 L 51.851562 91.078125 Z M 53.132812 89.796875 L 48.085938 84.753906 L 53.132812 79.707031 L 58.175781 84.753906 Z M 59.457031 83.472656 L 54.410156 78.429688 L 59.457031 73.382812 L 64.5 78.429688 Z M 65.78125 77.148438 L 60.734375 72.105469 L 65.78125 67.058594 L 70.824219 72.105469 Z M 65.78125 77.148438 "/>
<path style=" stroke:none;fill-rule:nonzero;fill:rgb(0%,0%,0%);fill-opacity:1;" d="M 92.734375 84.878906 C 93.238281 84.878906 93.636719 84.476562 93.636719 83.976562 C 93.636719 83.472656 93.238281 83.070312 92.734375 83.070312 C 92.234375 83.070312 91.832031 83.472656 91.832031 83.976562 C 91.832031 84.476562 92.234375 84.878906 92.734375 84.878906 Z M 92.734375 84.878906 "/>
<path style=" stroke:none;fill-rule:nonzero;fill:rgb(0%,0%,0%);fill-opacity:1;" d="M 100.0625 68.339844 C 100.566406 68.339844 100.964844 67.9375 100.964844 67.4375 C 100.964844 66.933594 100.566406 66.53125 100.0625 66.53125 C 99.5625 66.53125 99.160156 66.933594 99.160156 67.4375 C 99.160156 67.9375 99.5625 68.339844 100.0625 68.339844 Z M 100.0625 68.339844 "/>
<path style=" stroke:none;fill-rule:nonzero;fill:rgb(0%,0%,0%);fill-opacity:1;" d="M 105.507812 61.964844 C 106.011719 61.964844 106.414062 61.5625 106.414062 61.0625 C 106.414062 60.558594 106.011719 60.15625 105.507812 60.15625 C 105.007812 60.15625 104.605469 60.558594 104.605469 61.0625 C 104.605469 61.5625 105.007812 61.964844 105.507812 61.964844 Z M 105.507812 61.964844 "/>
<path style=" stroke:none;fill-rule:nonzero;fill:rgb(0%,0%,0%);fill-opacity:1;" d="M 104.679688 55.488281 C 105.183594 55.488281 105.585938 55.089844 105.585938 54.585938 C 105.585938 54.085938 105.183594 53.683594 104.679688 53.683594 C 104.179688 53.683594 103.777344 54.085938 103.777344 54.585938 C 103.777344 55.089844 104.179688 55.488281 104.679688 55.488281 Z M 104.679688 55.488281 "/>
<path style=" stroke:none;fill-rule:nonzero;fill:rgb(0%,0%,0%);fill-opacity:1;" d="M 13.652344 65.253906 C 14.15625 65.253906 14.554688 64.851562 14.554688 64.347656 C 14.554688 63.847656 14.15625 63.445312 13.652344 63.445312 C 13.152344 63.445312 12.75 63.847656 12.75 64.347656 C 12.75 64.851562 13.152344 65.253906 13.652344 65.253906 Z M 13.652344 65.253906 "/>
<path style=" stroke:none;fill-rule:nonzero;fill:rgb(0%,0%,0%);fill-opacity:1;" d="M 15.308594 59.730469 C 15.8125 59.730469 16.210938 59.328125 16.210938 58.828125 C 16.210938 58.324219 15.8125 57.925781 15.308594 57.925781 C 14.808594 57.925781 14.40625 58.324219 14.40625 58.828125 C 14.429688 59.328125 14.832031 59.730469 15.308594 59.730469 Z M 15.308594 59.730469 "/>
<path style=" stroke:none;fill-rule:nonzero;fill:rgb(0%,0%,0%);fill-opacity:1;" d="M 105.507812 73.785156 C 106.011719 73.785156 106.414062 73.382812 106.414062 72.882812 C 106.414062 72.378906 106.011719 71.980469 105.507812 71.980469 C 105.007812 71.980469 104.605469 72.378906 104.605469 72.882812 C 104.605469 73.382812 105.007812 73.785156 105.507812 73.785156 Z M 105.507812 73.785156 "/>
<path style=" stroke:none;fill-rule:nonzero;fill:rgb(0%,0%,0%);fill-opacity:1;" d="M 99.183594 62.792969 C 99.6875 62.792969 100.089844 62.390625 100.089844 61.890625 C 100.089844 61.386719 99.6875 60.988281 99.183594 60.988281 C 98.683594 60.988281 98.28125 61.386719 98.28125 61.890625 C 98.28125 62.390625 98.683594 62.792969 99.183594 62.792969 Z M 99.183594 62.792969 "/>
<path style=" stroke:none;fill-rule:nonzero;fill:rgb(0%,0%,0%);fill-opacity:1;" d="M 102.773438 81.941406 C 103.273438 81.941406 103.675781 81.542969 103.675781 81.039062 C 103.675781 80.539062 103.273438 80.136719 102.773438 80.136719 C 102.269531 80.136719 101.871094 80.539062 101.871094 81.039062 C 101.894531 81.542969 102.296875 81.941406 102.773438 81.941406 Z M 102.773438 81.941406 "/>
<path style=" stroke:none;fill-rule:nonzero;fill:rgb(0%,0%,0%);fill-opacity:1;" d="M 99.738281 72.984375 C 100.238281 72.984375 100.640625 72.582031 100.640625 72.078125 C 100.640625 71.578125 100.238281 71.175781 99.738281 71.175781 C 99.234375 71.175781 98.832031 71.578125 98.832031 72.078125 C 98.832031 72.582031 99.234375 72.984375 99.738281 72.984375 Z M 99.738281 72.984375 "/>
<path style=" stroke:none;fill-rule:nonzero;fill:rgb(0%,0%,0%);fill-opacity:1;" d="M 97 80.261719 C 97.503906 80.261719 97.90625 79.859375 97.90625 79.359375 C 97.90625 78.855469 97.503906 78.453125 97 78.453125 C 96.5 78.453125 96.097656 78.855469 96.097656 79.359375 C 96.097656 79.859375 96.5 80.261719 97 80.261719 Z M 97 80.261719 "/>
<path style=" stroke:none;fill-rule:nonzero;fill:rgb(0%,0%,0%);fill-opacity:1;" d="M 97.578125 56.191406 C 98.082031 56.191406 98.480469 55.792969 98.480469 55.289062 C 98.480469 54.789062 98.082031 54.386719 97.578125 54.386719 C 97.078125 54.386719 96.675781 54.789062 96.675781 55.289062 C 96.699219 55.792969 97.101562 56.191406 97.578125 56.191406 Z M 97.578125 56.191406 "/>
</g>
</svg>
