<?xml version="1.0" encoding="UTF-8"?>
<svg xmlns="http://www.w3.org/2000/svg" xmlns:xlink="http://www.w3.org/1999/xlink" width="px" height="px" viewBox="0 0 257 257" version="1.1">
<g id="surface1">
<path style=" stroke:none;fill-rule:nonzero;fill:rgb(0%,0%,0%);fill-opacity:1;" d="M 46.800781 137.101562 C 47.800781 137.101562 48.601562 136.300781 48.601562 135.300781 C 48.601562 134.300781 47.800781 133.5 46.800781 133.5 C 45.800781 133.5 45 134.300781 45 135.300781 C 45 136.300781 45.800781 137.101562 46.800781 137.101562 Z M 46.800781 137.101562 "/>
<path style=" stroke:none;fill-rule:nonzero;fill:rgb(0%,0%,0%);fill-opacity:1;" d="M 46.800781 113.601562 C 47.800781 113.601562 48.601562 112.800781 48.601562 111.800781 C 48.601562 110.800781 47.800781 110 46.800781 110 C 45.800781 110 45 110.800781 45 111.800781 C 45 112.800781 45.800781 113.601562 46.800781 113.601562 Z M 46.800781 113.601562 "/>
<path style=" stroke:none;fill-rule:nonzero;fill:rgb(0%,0%,0%);fill-opacity:1;" d="M 48.449219 150 C 49.449219 150 50.25 149.199219 50.25 148.199219 C 50.25 147.199219 49.449219 146.398438 48.449219 146.398438 C 47.449219 146.398438 46.648438 147.199219 46.648438 148.199219 C 46.648438 149.199219 47.449219 150 48.449219 150 Z M 48.449219 150 "/>
<path style=" stroke:none;fill-rule:nonzero;fill:rgb(0%,0%,0%);fill-opacity:1;" d="M 59.398438 135.5 C 60.398438 135.5 61.199219 134.699219 61.199219 133.699219 C 61.199219 132.699219 60.398438 131.898438 59.398438 131.898438 C 58.398438 131.898438 57.601562 132.699219 57.601562 133.699219 C 57.601562 134.699219 58.398438 135.5 59.398438 135.5 Z M 59.398438 135.5 "/>
<path style=" stroke:none;fill-rule:nonzero;fill:rgb(0%,0%,0%);fill-opacity:1;" d="M 57.648438 124.449219 C 58.648438 124.449219 59.449219 123.648438 59.449219 122.648438 C 59.449219 121.648438 58.648438 120.851562 57.648438 120.851562 C 56.648438 120.851562 55.851562 121.648438 55.851562 122.648438 C 55.851562 123.648438 56.648438 124.449219 57.648438 124.449219 Z M 57.648438 124.449219 "/>
<path style=" stroke:none;fill-rule:nonzero;fill:rgb(0%,0%,0%);fill-opacity:1;" d="M 76.148438 106.898438 C 77.148438 106.898438 77.949219 106.101562 77.949219 105.101562 C 77.949219 104.101562 77.148438 103.300781 76.148438 103.300781 C 75.148438 103.300781 74.351562 104.101562 74.351562 105.101562 C 74.351562 106.101562 75.148438 106.898438 76.148438 106.898438 Z M 76.148438 106.898438 "/>
<path style=" stroke:none;fill-rule:nonzero;fill:rgb(0%,0%,0%);fill-opacity:1;" d="M 67.601562 125.398438 C 68.601562 125.398438 69.398438 124.601562 69.398438 123.601562 C 69.398438 122.601562 68.601562 121.800781 67.601562 121.800781 C 66.601562 121.800781 65.800781 122.601562 65.800781 123.601562 C 65.800781 124.601562 66.601562 125.398438 67.601562 125.398438 Z M 67.601562 125.398438 "/>
<path style=" stroke:none;fill-rule:nonzero;fill:rgb(0%,0%,0%);fill-opacity:1;" d="M 58.300781 115.199219 C 59.300781 115.199219 60.101562 114.398438 60.101562 113.398438 C 60.101562 112.398438 59.300781 111.601562 58.300781 111.601562 C 57.300781 111.601562 56.5 112.398438 56.5 113.398438 C 56.550781 114.398438 57.351562 115.199219 58.300781 115.199219 Z M 58.300781 115.199219 "/>
<path style=" stroke:none;fill-rule:nonzero;fill:rgb(0%,0%,0%);fill-opacity:1;" d="M 52.25 97.300781 C 53.25 97.300781 54.050781 96.5 54.050781 95.5 C 54.050781 94.5 53.25 93.699219 52.25 93.699219 C 51.25 93.699219 50.449219 94.5 50.449219 95.5 C 50.449219 96.5 51.25 97.300781 52.25 97.300781 Z M 52.25 97.300781 "/>
<path style=" stroke:none;fill-rule:nonzero;fill:rgb(0%,0%,0%);fill-opacity:1;" d="M 62.601562 148.601562 C 63.601562 148.601562 64.398438 147.800781 64.398438 146.800781 C 64.398438 145.800781 63.601562 145 62.601562 145 C 61.601562 145 60.800781 145.800781 60.800781 146.800781 C 60.800781 147.800781 61.601562 148.601562 62.601562 148.601562 Z M 62.601562 148.601562 "/>
<path style=" stroke:none;fill-rule:nonzero;fill:rgb(0%,0%,0%);fill-opacity:1;" d="M 63.75 100.648438 C 64.75 100.648438 65.550781 99.851562 65.550781 98.851562 C 65.550781 97.851562 64.75 97.050781 63.75 97.050781 C 62.75 97.050781 61.949219 97.851562 61.949219 98.851562 C 61.949219 99.851562 62.75 100.648438 63.75 100.648438 Z M 63.75 100.648438 "/>
<path style=" stroke:none;fill-rule:nonzero;fill:rgb(0%,0%,0%);fill-opacity:1;" d="M 41.398438 123 C 42.398438 123 43.199219 122.199219 43.199219 121.199219 C 43.199219 120.199219 42.398438 119.398438 41.398438 119.398438 C 40.398438 119.398438 39.601562 120.199219 39.601562 121.199219 C 39.601562 122.199219 40.398438 123 41.398438 123 Z M 41.398438 123 "/>
<path style=" stroke:none;fill-rule:nonzero;fill:rgb(0%,0%,0%);fill-opacity:1;" d="M 72.25 91.5 C 73.25 91.5 74.050781 90.699219 74.050781 89.699219 C 74.050781 88.699219 73.25 87.898438 72.25 87.898438 C 71.25 87.898438 70.449219 88.699219 70.449219 89.699219 C 70.5 90.699219 71.300781 91.5 72.25 91.5 Z M 72.25 91.5 "/>
<path style=" stroke:none;fill-rule:nonzero;fill:rgb(0%,0%,0%);fill-opacity:1;" d="M 114.148438 77.148438 C 135.449219 77.148438 152.699219 59.898438 152.699219 38.601562 C 152.699219 17.300781 135.449219 0 114.148438 0 C 92.851562 0 75.601562 17.25 75.601562 38.550781 C 75.601562 59.851562 92.851562 77.148438 114.148438 77.148438 Z M 114.148438 73.550781 C 110.648438 73.550781 107.25 73 104.050781 72.050781 C 109.5 65.101562 115.101562 54.5 115.851562 39.648438 C 120.949219 37.050781 125.851562 35.449219 130.449219 34.550781 C 130.5 34.800781 135.199219 55.75 121.398438 72.699219 C 119.050781 73.300781 116.648438 73.550781 114.148438 73.550781 Z M 149.148438 38.550781 C 149.148438 53.300781 140 65.898438 127.050781 71.050781 C 137.699219 54.601562 134.449219 36.351562 134 34 C 139.648438 33.300781 144.699219 33.601562 148.851562 34.300781 C 149.050781 35.75 149.148438 37.148438 149.148438 38.550781 Z M 148.199219 30.550781 C 139.5 29.300781 127.5 29.800781 114.25 36.5 C 109.449219 33.398438 105.601562 29.898438 102.550781 26.398438 C 102.75 26.25 118.5 11.699219 140.101562 15.148438 C 144 19.449219 146.851562 24.699219 148.199219 30.550781 Z M 114.148438 3.550781 C 122.351562 3.550781 129.851562 6.398438 135.800781 11.101562 C 116.25 10.101562 102.050781 22.050781 100.300781 23.601562 C 96.851562 19.050781 94.601562 14.550781 93.148438 10.601562 C 99 6.199219 106.25 3.550781 114.148438 3.550781 Z M 90.199219 13.101562 C 93.5 21.300781 99.898438 31.398438 112.300781 39.5 C 112 45.199219 110.949219 50.25 109.398438 54.699219 C 109.148438 54.648438 88.699219 48.199219 80.898438 27.75 C 82.699219 22.101562 85.949219 17.101562 90.199219 13.101562 Z M 79.5 33.5 C 88.398438 50.949219 105.851562 57.300781 108.101562 58.050781 C 105.898438 63.300781 103.050781 67.5 100.398438 70.800781 C 87.898438 65.449219 79.148438 53.050781 79.148438 38.601562 C 79.148438 36.851562 79.300781 35.148438 79.5 33.5 Z M 79.5 33.5 "/>
<path style=" stroke:none;fill-rule:nonzero;fill:rgb(0%,0%,0%);fill-opacity:1;" d="M 86.050781 111.75 C 87.050781 111.75 87.851562 110.949219 87.851562 109.949219 C 87.851562 108.949219 87.050781 108.148438 86.050781 108.148438 C 85.050781 108.148438 84.25 108.949219 84.25 109.949219 C 84.25 110.949219 85.050781 111.75 86.050781 111.75 Z M 86.050781 111.75 "/>
<path style=" stroke:none;fill-rule:nonzero;fill:rgb(0%,0%,0%);fill-opacity:1;" d="M 83.050781 122.699219 C 84.050781 122.699219 84.851562 121.898438 84.851562 120.898438 C 84.851562 119.898438 84.050781 119.101562 83.050781 119.101562 C 82.050781 119.101562 81.25 119.898438 81.25 120.898438 C 81.25 121.898438 82.050781 122.699219 83.050781 122.699219 Z M 83.050781 122.699219 "/>
<path style=" stroke:none;fill-rule:nonzero;fill:rgb(0%,0%,0%);fill-opacity:1;" d="M 75.601562 135.601562 C 76.601562 135.601562 77.398438 134.800781 77.398438 133.800781 C 77.398438 132.800781 76.601562 132 75.601562 132 C 74.601562 132 73.800781 132.800781 73.800781 133.800781 C 73.800781 134.800781 74.601562 135.601562 75.601562 135.601562 Z M 75.601562 135.601562 "/>
<path style=" stroke:none;fill-rule:nonzero;fill:rgb(0%,0%,0%);fill-opacity:1;" d="M 215.601562 137.601562 C 216.601562 137.601562 217.398438 136.800781 217.398438 135.800781 C 217.398438 134.800781 216.601562 134 215.601562 134 C 214.601562 134 213.800781 134.800781 213.800781 135.800781 C 213.851562 136.800781 214.648438 137.601562 215.601562 137.601562 Z M 215.601562 137.601562 "/>
<path style=" stroke:none;fill-rule:nonzero;fill:rgb(0%,0%,0%);fill-opacity:1;" d="M 173.949219 137.898438 C 174.949219 137.898438 175.75 137.101562 175.75 136.101562 C 175.75 135.101562 174.949219 134.300781 173.949219 134.300781 C 172.949219 134.300781 172.148438 135.101562 172.148438 136.101562 C 172.199219 137.101562 173 137.898438 173.949219 137.898438 Z M 173.949219 137.898438 "/>
<path style=" stroke:none;fill-rule:nonzero;fill:rgb(0%,0%,0%);fill-opacity:1;" d="M 37.601562 142.398438 C 38.601562 142.398438 39.398438 141.601562 39.398438 140.601562 C 39.398438 139.601562 38.601562 138.800781 37.601562 138.800781 C 36.601562 138.800781 35.800781 139.601562 35.800781 140.601562 C 35.800781 141.601562 36.601562 142.398438 37.601562 142.398438 Z M 37.601562 142.398438 "/>
<path style=" stroke:none;fill-rule:nonzero;fill:rgb(0%,0%,0%);fill-opacity:1;" d="M 170.949219 148.800781 C 171.949219 148.800781 172.75 148 172.75 147 C 172.75 146 171.949219 145.199219 170.949219 145.199219 C 169.949219 145.199219 169.148438 146 169.148438 147 C 169.199219 148 170 148.800781 170.949219 148.800781 Z M 170.949219 148.800781 "/>
<path style=" stroke:none;fill-rule:nonzero;fill:rgb(0%,0%,0%);fill-opacity:1;" d="M 189.398438 135.199219 C 190.398438 135.199219 191.199219 134.398438 191.199219 133.398438 C 191.199219 132.398438 190.398438 131.601562 189.398438 131.601562 C 188.398438 131.601562 187.601562 132.398438 187.601562 133.398438 C 187.601562 134.398438 188.398438 135.199219 189.398438 135.199219 Z M 189.398438 135.199219 "/>
<path style=" stroke:none;fill-rule:nonzero;fill:rgb(0%,0%,0%);fill-opacity:1;" d="M 180.851562 153.648438 C 181.851562 153.648438 182.648438 152.851562 182.648438 151.851562 C 182.648438 150.851562 181.851562 150.050781 180.851562 150.050781 C 179.851562 150.050781 179.050781 150.851562 179.050781 151.851562 C 179.050781 152.851562 179.851562 153.648438 180.851562 153.648438 Z M 180.851562 153.648438 "/>
<path style=" stroke:none;fill-rule:nonzero;fill:rgb(0%,0%,0%);fill-opacity:1;" d="M 181.398438 124.949219 C 182.398438 124.949219 183.199219 124.148438 183.199219 123.148438 C 183.199219 122.148438 182.398438 121.351562 181.398438 121.351562 C 180.398438 121.351562 179.601562 122.148438 179.601562 123.148438 C 179.601562 124.148438 180.398438 124.949219 181.398438 124.949219 Z M 181.398438 124.949219 "/>
<path style=" stroke:none;fill-rule:nonzero;fill:rgb(0%,0%,0%);fill-opacity:1;" d="M 142.851562 179.851562 C 121.550781 179.851562 104.300781 197.101562 104.300781 218.398438 C 104.300781 239.699219 121.550781 256.949219 142.851562 256.949219 C 164.148438 256.949219 181.398438 239.699219 181.398438 218.398438 C 181.449219 197.148438 164.148438 179.851562 142.851562 179.851562 Z M 142.851562 183.449219 C 146.351562 183.449219 149.75 184 152.949219 184.949219 C 147.5 191.898438 141.898438 202.5 141.148438 217.351562 C 136.050781 219.949219 131.148438 221.550781 126.550781 222.449219 C 126.5 222.199219 121.800781 201.25 135.601562 184.300781 C 137.949219 183.699219 140.351562 183.449219 142.851562 183.449219 Z M 107.851562 218.449219 C 107.851562 203.699219 117 191.101562 129.949219 185.949219 C 119.300781 202.398438 122.550781 220.648438 123 223 C 117.351562 223.699219 112.300781 223.398438 108.148438 222.699219 C 107.949219 221.25 107.851562 219.851562 107.851562 218.449219 Z M 108.800781 226.449219 C 117.550781 227.699219 129.5 227.25 142.75 220.5 C 147.550781 223.601562 151.398438 227.101562 154.449219 230.601562 C 154.25 230.75 138.5 245.300781 116.898438 241.851562 C 113 237.550781 110.148438 232.300781 108.800781 226.449219 Z M 142.851562 253.449219 C 134.648438 253.449219 127.148438 250.601562 121.199219 245.898438 C 140.75 246.898438 154.949219 234.949219 156.699219 233.398438 C 160.148438 237.949219 162.398438 242.449219 163.898438 246.398438 C 158 250.800781 150.75 253.449219 142.851562 253.449219 Z M 166.800781 243.898438 C 163.5 235.699219 157.101562 225.601562 144.699219 217.5 C 145 211.800781 146.050781 206.75 147.601562 202.300781 C 147.851562 202.351562 168.300781 208.800781 176.101562 229.25 C 174.300781 234.898438 171.050781 239.898438 166.800781 243.898438 Z M 177.5 223.5 C 168.601562 206.050781 151.148438 199.699219 148.898438 198.949219 C 151.101562 193.699219 153.949219 189.5 156.601562 186.199219 C 169.101562 191.550781 177.851562 203.949219 177.851562 218.398438 C 177.851562 220.148438 177.699219 221.851562 177.5 223.5 Z M 177.5 223.5 "/>
<path style=" stroke:none;fill-rule:nonzero;fill:rgb(0%,0%,0%);fill-opacity:1;" d="M 229.800781 130.550781 C 230.800781 130.550781 231.601562 129.75 231.601562 128.75 C 231.601562 127.75 230.800781 126.949219 229.800781 126.949219 C 228.800781 126.949219 228 127.75 228 128.75 C 228 129.75 228.800781 130.550781 229.800781 130.550781 Z M 229.800781 130.550781 "/>
<path style=" stroke:none;fill-rule:nonzero;fill:rgb(0%,0%,0%);fill-opacity:1;" d="M 226.449219 141.550781 C 227.449219 141.550781 228.25 140.75 228.25 139.75 C 228.25 138.75 227.449219 137.949219 226.449219 137.949219 C 225.449219 137.949219 224.648438 138.75 224.648438 139.75 C 224.699219 140.75 225.5 141.550781 226.449219 141.550781 Z M 226.449219 141.550781 "/>
<path style=" stroke:none;fill-rule:nonzero;fill:rgb(0%,0%,0%);fill-opacity:1;" d="M 219.398438 118.148438 C 220.398438 118.148438 221.199219 117.351562 221.199219 116.351562 C 221.199219 115.351562 220.398438 114.550781 219.398438 114.550781 C 218.398438 114.550781 217.601562 115.351562 217.601562 116.351562 C 217.601562 117.351562 218.398438 118.148438 219.398438 118.148438 Z M 219.398438 118.148438 "/>
<path style=" stroke:none;fill-rule:nonzero;fill:rgb(0%,0%,0%);fill-opacity:1;" d="M 257 128.5 L 211.648438 83.148438 L 209.101562 85.699219 L 251.898438 128.5 L 192.25 188.199219 L 146.898438 142.851562 L 246.898438 42.851562 L 214.148438 10.101562 L 114.148438 110.101562 L 27.699219 23.699219 L 23.648438 27.75 L 62.199219 66.300781 L 0 128.5 L 45.351562 173.851562 L 47.898438 171.300781 L 5.050781 128.5 L 64.75 68.800781 L 110.101562 114.148438 L 10.101562 214.148438 L 42.851562 246.898438 L 142.851562 146.898438 L 229.25 233.300781 L 233.300781 229.25 L 194.75 190.699219 Z M 143.601562 141.101562 L 133.550781 131.050781 L 143.601562 121 L 153.648438 131.050781 Z M 45.351562 194 L 55.398438 183.949219 L 65.5 194 L 55.449219 204.050781 Z M 52.898438 206.601562 L 42.851562 216.648438 L 32.800781 206.601562 L 42.851562 196.550781 Z M 57.949219 181.398438 L 68 171.351562 L 78.050781 181.398438 L 68.050781 191.5 Z M 70.550781 168.800781 L 80.601562 158.75 L 90.648438 168.800781 L 80.601562 178.851562 Z M 83.148438 156.199219 L 93.199219 146.148438 L 103.25 156.199219 L 93.199219 166.25 Z M 95.75 143.601562 L 105.800781 133.550781 L 115.851562 143.601562 L 105.800781 153.648438 Z M 108.351562 131.050781 L 118.398438 121 L 128.449219 131.050781 L 118.398438 141.101562 Z M 120.949219 118.449219 L 131 108.398438 L 141.050781 118.449219 L 131.050781 128.5 Z M 204.101562 55.449219 L 194 65.5 L 183.949219 55.449219 L 194 45.351562 Z M 196.550781 42.851562 L 206.601562 32.800781 L 216.648438 42.851562 L 206.601562 52.898438 Z M 191.5 68.050781 L 181.449219 78.101562 L 171.398438 68.050781 L 181.449219 58 Z M 178.898438 80.648438 L 168.851562 90.699219 L 158.800781 80.648438 L 168.851562 70.601562 Z M 166.300781 93.25 L 156.25 103.300781 L 146.199219 93.25 L 156.25 83.199219 Z M 153.699219 105.851562 L 143.648438 115.898438 L 133.601562 105.851562 L 143.648438 95.800781 Z M 156.199219 128.5 L 146.148438 118.449219 L 156.199219 108.398438 L 166.25 118.449219 Z M 168.800781 115.898438 L 158.75 105.851562 L 168.800781 95.800781 L 178.851562 105.851562 Z M 181.398438 103.300781 L 171.351562 93.25 L 181.398438 83.199219 L 191.449219 93.25 Z M 194 90.699219 L 183.949219 80.648438 L 194 70.601562 L 204.050781 80.648438 Z M 206.601562 78.101562 L 196.550781 68.050781 L 206.601562 58 L 216.648438 68.050781 Z M 219.199219 65.5 L 209.148438 55.449219 L 219.199219 45.398438 L 229.25 55.449219 Z M 241.851562 42.851562 L 231.800781 52.898438 L 221.75 42.851562 L 231.800781 32.800781 Z M 229.300781 30.25 L 219.25 40.300781 L 209.199219 30.25 L 219.25 20.199219 Z M 15.148438 214.148438 L 214.148438 15.101562 L 216.699219 17.648438 L 17.648438 216.699219 Z M 20.148438 219.199219 L 30.199219 209.148438 L 40.25 219.199219 L 30.199219 229.25 Z M 42.851562 241.851562 L 32.800781 231.800781 L 42.851562 221.75 L 52.898438 231.800781 Z M 55.449219 229.300781 L 45.398438 219.25 L 55.449219 209.199219 L 65.5 219.25 Z M 68.050781 216.699219 L 58 206.648438 L 68.050781 196.601562 L 78.101562 206.648438 Z M 80.648438 204.101562 L 70.550781 194 L 80.601562 183.949219 L 90.648438 194 Z M 93.25 191.5 L 83.199219 181.449219 L 93.25 171.398438 L 103.300781 181.449219 Z M 105.851562 178.898438 L 95.800781 168.851562 L 105.851562 158.800781 L 115.898438 168.851562 Z M 118.449219 166.300781 L 108.398438 156.25 L 118.449219 146.199219 L 128.5 156.25 Z M 131.050781 153.699219 L 121 143.648438 L 131.050781 133.601562 L 141.101562 143.648438 Z M 131.050781 153.699219 "/>
<path style=" stroke:none;fill-rule:nonzero;fill:rgb(0%,0%,0%);fill-opacity:1;" d="M 184.75 169.101562 C 185.75 169.101562 186.550781 168.300781 186.550781 167.300781 C 186.550781 166.300781 185.75 165.5 184.75 165.5 C 183.75 165.5 182.949219 166.300781 182.949219 167.300781 C 182.949219 168.300781 183.75 169.101562 184.75 169.101562 Z M 184.75 169.101562 "/>
<path style=" stroke:none;fill-rule:nonzero;fill:rgb(0%,0%,0%);fill-opacity:1;" d="M 199.351562 136.148438 C 200.351562 136.148438 201.148438 135.351562 201.148438 134.351562 C 201.148438 133.351562 200.351562 132.550781 199.351562 132.550781 C 198.351562 132.550781 197.550781 133.351562 197.550781 134.351562 C 197.550781 135.351562 198.351562 136.148438 199.351562 136.148438 Z M 199.351562 136.148438 "/>
<path style=" stroke:none;fill-rule:nonzero;fill:rgb(0%,0%,0%);fill-opacity:1;" d="M 210.199219 123.449219 C 211.199219 123.449219 212 122.648438 212 121.648438 C 212 120.648438 211.199219 119.851562 210.199219 119.851562 C 209.199219 119.851562 208.398438 120.648438 208.398438 121.648438 C 208.398438 122.648438 209.199219 123.449219 210.199219 123.449219 Z M 210.199219 123.449219 "/>
<path style=" stroke:none;fill-rule:nonzero;fill:rgb(0%,0%,0%);fill-opacity:1;" d="M 208.550781 110.550781 C 209.550781 110.550781 210.351562 109.75 210.351562 108.75 C 210.351562 107.75 209.550781 106.949219 208.550781 106.949219 C 207.550781 106.949219 206.75 107.75 206.75 108.75 C 206.75 109.75 207.550781 110.550781 208.550781 110.550781 Z M 208.550781 110.550781 "/>
<path style=" stroke:none;fill-rule:nonzero;fill:rgb(0%,0%,0%);fill-opacity:1;" d="M 27.199219 130 C 28.199219 130 29 129.199219 29 128.199219 C 29 127.199219 28.199219 126.398438 27.199219 126.398438 C 26.199219 126.398438 25.398438 127.199219 25.398438 128.199219 C 25.398438 129.199219 26.199219 130 27.199219 130 Z M 27.199219 130 "/>
<path style=" stroke:none;fill-rule:nonzero;fill:rgb(0%,0%,0%);fill-opacity:1;" d="M 30.5 119 C 31.5 119 32.300781 118.199219 32.300781 117.199219 C 32.300781 116.199219 31.5 115.398438 30.5 115.398438 C 29.5 115.398438 28.699219 116.199219 28.699219 117.199219 C 28.75 118.199219 29.550781 119 30.5 119 Z M 30.5 119 "/>
<path style=" stroke:none;fill-rule:nonzero;fill:rgb(0%,0%,0%);fill-opacity:1;" d="M 210.199219 147 C 211.199219 147 212 146.199219 212 145.199219 C 212 144.199219 211.199219 143.398438 210.199219 143.398438 C 209.199219 143.398438 208.398438 144.199219 208.398438 145.199219 C 208.398438 146.199219 209.199219 147 210.199219 147 Z M 210.199219 147 "/>
<path style=" stroke:none;fill-rule:nonzero;fill:rgb(0%,0%,0%);fill-opacity:1;" d="M 197.601562 125.101562 C 198.601562 125.101562 199.398438 124.300781 199.398438 123.300781 C 199.398438 122.300781 198.601562 121.5 197.601562 121.5 C 196.601562 121.5 195.800781 122.300781 195.800781 123.300781 C 195.800781 124.300781 196.601562 125.101562 197.601562 125.101562 Z M 197.601562 125.101562 "/>
<path style=" stroke:none;fill-rule:nonzero;fill:rgb(0%,0%,0%);fill-opacity:1;" d="M 204.75 163.25 C 205.75 163.25 206.550781 162.449219 206.550781 161.449219 C 206.550781 160.449219 205.75 159.648438 204.75 159.648438 C 203.75 159.648438 202.949219 160.449219 202.949219 161.449219 C 203 162.449219 203.800781 163.25 204.75 163.25 Z M 204.75 163.25 "/>
<path style=" stroke:none;fill-rule:nonzero;fill:rgb(0%,0%,0%);fill-opacity:1;" d="M 198.699219 145.398438 C 199.699219 145.398438 200.5 144.601562 200.5 143.601562 C 200.5 142.601562 199.699219 141.800781 198.699219 141.800781 C 197.699219 141.800781 196.898438 142.601562 196.898438 143.601562 C 196.898438 144.601562 197.699219 145.398438 198.699219 145.398438 Z M 198.699219 145.398438 "/>
<path style=" stroke:none;fill-rule:nonzero;fill:rgb(0%,0%,0%);fill-opacity:1;" d="M 193.25 159.898438 C 194.25 159.898438 195.050781 159.101562 195.050781 158.101562 C 195.050781 157.101562 194.25 156.300781 193.25 156.300781 C 192.25 156.300781 191.449219 157.101562 191.449219 158.101562 C 191.449219 159.101562 192.25 159.898438 193.25 159.898438 Z M 193.25 159.898438 "/>
<path style=" stroke:none;fill-rule:nonzero;fill:rgb(0%,0%,0%);fill-opacity:1;" d="M 194.398438 111.949219 C 195.398438 111.949219 196.199219 111.148438 196.199219 110.148438 C 196.199219 109.148438 195.398438 108.351562 194.398438 108.351562 C 193.398438 108.351562 192.601562 109.148438 192.601562 110.148438 C 192.648438 111.148438 193.449219 111.949219 194.398438 111.949219 Z M 194.398438 111.949219 "/>
</g>
</svg>
